/* XPM */
static char *_00e045805fb4538e342a01bfaa94899[] = {
/* columns rows colors chars-per-pixel */
"16 16 53 1 ",
"  c #07175C",
". c #07175D",
"X c #07175E",
"o c #081964",
"O c #081865",
"+ c #0B2084",
"@ c #0B2085",
"# c #0C2495",
"$ c #0F2DBB",
"% c #1132D1",
"& c #1133D2",
"* c #1235D8",
"= c #1336D8",
"- c #173AD8",
"; c #193BD9",
": c #1C3DD9",
"> c #2141DA",
", c #2545DB",
"< c #2646DB",
"1 c #2A49DC",
"2 c #2A4ADC",
"3 c #2E4DDC",
"4 c #3D5ADF",
"5 c #3E5ADF",
"6 c #3F5BDF",
"7 c #4560E0",
"8 c #546DE2",
"9 c #5F77E4",
"0 c #697FE6",
"q c #6A80E6",
"w c #6B81E6",
"e c #7186E7",
"r c #7388E7",
"t c #93A3ED",
"y c #94A3ED",
"u c #95A4ED",
"i c #A1AFEF",
"p c #A7B4F0",
"a c #ABB7F0",
"s c #B1BCF1",
"d c #C3CCF4",
"f c #D6DCF8",
"g c #E0E5F9",
"h c #E2E6FA",
"j c #E7EAFA",
"k c #E8EBFA",
"l c #F4F6FD",
"z c #F5F7FD",
"x c #F7F8FD",
"c c #FCFCFE",
"v c #FEFEFE",
"b c gray100",
"n c None",
/* pixels */
"nnnnnO#$$#Onnnnn",
"nnn.%******%.nnn",
"nn+**********+nn",
"n.********4q**.n",
"n%*******rlbp:%n",
"O******>sbbblq*O",
"#*****7gbbzu<**#",
"$****,kbbb9****$",
"$*****2gbbbt-**$",
"#****6dbbfy8-**#",
"O**<ikaq1******O",
"n%3e6*********%n",
"nX************.n",
"nn@**********+nn",
"nnnX%******%.nnn",
"nnnnnO#$$#Onnnnn"
};
