/* XPM */
static char *_3c7cdb773d44d48b59fc21debf05946[] = {
/* columns rows colors chars-per-pixel */
"128 128 81 1 ",
"  c #061146",
". c #06124B",
"X c #071454",
"o c #07165A",
"O c #08175D",
"+ c #071861",
"@ c #081864",
"# c #091B6D",
"$ c #091C71",
"% c #0A1E7C",
"& c #0A1F80",
"* c #0B2085",
"= c #0B228B",
"- c #0C2493",
"; c #0D269B",
": c #0D27A1",
"> c #0D28A5",
", c #0E2AAD",
"< c #0E2BB1",
"1 c #0F2EBE",
"2 c #0F2FC3",
"3 c #0F30C6",
"4 c #1030C5",
"5 c #1132CE",
"6 c #1134D4",
"7 c #1235D8",
"8 c #1639D8",
"9 c #1A3CD9",
"0 c #1E40DA",
"q c #2444DB",
"w c #2847DB",
"e c #2C4BDC",
"r c #314FDC",
"t c #3452DD",
"y c #3956DE",
"u c #3D5ADF",
"i c #425EDF",
"p c #435FE0",
"a c #4661E0",
"s c #4B65E1",
"d c #536CE2",
"f c #5770E3",
"g c #5B73E3",
"h c #657CE5",
"j c #687EE5",
"k c #6D83E7",
"l c #7186E7",
"z c #7488E7",
"x c #768AE8",
"c c #7A8DE8",
"v c #7E91E9",
"b c #8395EA",
"n c #8799EB",
"m c #8A9BEB",
"M c #92A2EC",
"N c #98A7ED",
"B c #9BAAEE",
"V c #A0AEEF",
"C c #A3B1EF",
"Z c #A6B3F0",
"A c #A9B5F0",
"S c #AEB9F1",
"D c #B2BDF2",
"F c #B6C0F2",
"G c #BBC5F3",
"H c #BFC9F4",
"J c #C3CCF5",
"K c #CBD2F6",
"L c #D0D6F7",
"P c #D3DAF7",
"I c #D6DCF8",
"U c #D9DEF8",
"Y c #DDE2F9",
"T c #E2E6FA",
"R c #E6E9FA",
"E c #EAEDFB",
"W c #EFF1FC",
"Q c #F4F5FD",
"! c #F7F8FD",
"~ c #FFFFFF",
"^ c None",
/* pixels */
"^^^^^^^^^^^^^^^^^^^^^^^^^^^^^^^^^^^^^^^^^^^^^^^^^^^^^^^^^^^ o@#%%$+o ^^^^^^^^^^^^^^^^^^^^^^^^^^^^^^^^^^^^^^^^^^^^^^^^^^^^^^^^^^^",
"^^^^^^^^^^^^^^^^^^^^^^^^^^^^^^^^^^^^^^^^^^^^^^^^^^^^$-,677777777777777776<;$^^^^^^^^^^^^^^^^^^^^^^^^^^^^^^^^^^^^^^^^^^^^^^^^^^^^",
"^^^^^^^^^^^^^^^^^^^^^^^^^^^^^^^^^^^^^^^^^^^^^^^.*167777777777777777777776777761*.^^^^^^^^^^^^^^^^^^^^^^^^^^^^^^^^^^^^^^^^^^^^^^^",
"^^^^^^^^^^^^^^^^^^^^^^^^^^^^^^^^^^^^^^^^^^^^$,777777777777777777777777778777777776,#^^^^^^^^^^^^^^^^^^^^^^^^^^^^^^^^^^^^^^^^^^^^",
"^^^^^^^^^^^^^^^^^^^^^^^^^^^^^^^^^^^^^^^^^o,667777777777777777777777777777777777777777,o^^^^^^^^^^^^^^^^^^^^^^^^^^^^^^^^^^^^^^^^^",
"^^^^^^^^^^^^^^^^^^^^^^^^^^^^^^^^^^^^^^^=567777777777777777777777777777777777777777777775=^^^^^^^^^^^^^^^^^^^^^^^^^^^^^^^^^^^^^^^",
"^^^^^^^^^^^^^^^^^^^^^^^^^^^^^^^^^^^^^;6777777777777777777777777777777777777777777777777776:^^^^^^^^^^^^^^^^^^^^^^^^^^^^^^^^^^^^^",
"^^^^^^^^^^^^^^^^^^^^^^^^^^^^^^^^^^^,77777777777777777777777777777777777777777777777777777777,^^^^^^^^^^^^^^^^^^^^^^^^^^^^^^^^^^^",
"^^^^^^^^^^^^^^^^^^^^^^^^^^^^^^^^^;677777777777777777777777777777777777777777777777777777777777:^^^^^^^^^^^^^^^^^^^^^^^^^^^^^^^^^",
"^^^^^^^^^^^^^^^^^^^^^^^^^^^^^^^*7777777777777777777777777777777777777777777777777777777777777776*^^^^^^^^^^^^^^^^^^^^^^^^^^^^^^^",
"^^^^^^^^^^^^^^^^^^^^^^^^^^^^^ 17777777777777777777777777777777777777777777777777777777777777777772 ^^^^^^^^^^^^^^^^^^^^^^^^^^^^^",
"^^^^^^^^^^^^^^^^^^^^^^^^^^^^;6777777777777777777777777777777777777777777777777777777777777777777777;^^^^^^^^^^^^^^^^^^^^^^^^^^^^",
"^^^^^^^^^^^^^^^^^^^^^^^^^^^26777777777777777777777777777777777777777777777777777777777777777777777772 ^^^^^^^^^^^^^^^^^^^^^^^^^^",
"^^^^^^^^^^^^^^^^^^^^^^^^^%6777777777777777777777777777777777777777777777777777777777777777777777777776*^^^^^^^^^^^^^^^^^^^^^^^^^",
"^^^^^^^^^^^^^^^^^^^^^^^^;777777777777777777777777777777777777777777777777777777777777777777777777777777;^^^^^^^^^^^^^^^^^^^^^^^^",
"^^^^^^^^^^^^^^^^^^^^^^^2777777777777777777777777777777777777777777777777777777777777777777777777777777772^^^^^^^^^^^^^^^^^^^^^^^",
"^^^^^^^^^^^^^^^^^^^^^^277777777777777777777777777777777777777777777777777777777777777777777777777777777774^^^^^^^^^^^^^^^^^^^^^^",
"^^^^^^^^^^^^^^^^^^^^^67777777777777777777777777777777777777777777777777777777777777777777777777777777777766.^^^^^^^^^^^^^^^^^^^^",
"^^^^^^^^^^^^^^^^^^^X6677777777777777777777777777777777777777777777777777777777777777777777777777777777777776o^^^^^^^^^^^^^^^^^^^",
"^^^^^^^^^^^^^^^^^^X777777777777777777777777777777777777777777777777777777777777777777777777777777777777777777X^^^^^^^^^^^^^^^^^^",
"^^^^^^^^^^^^^^^^^ 67777777777777777777777777777777777777777777777777777777777777777777777777777777777777777776 ^^^^^^^^^^^^^^^^^",
"^^^^^^^^^^^^^^^^^6777777777777777777777777777777777777777777777777777777777777777777777777777777777777777777776^^^^^^^^^^^^^^^^^",
"^^^^^^^^^^^^^^^^377777777777777777777777777777777777777777777777777777777777777777777777777777777777777777777773^^^^^^^^^^^^^^^^",
"^^^^^^^^^^^^^^^47777777777777777777777777777777777777777777777777777777777777777777777777777777777777777777777772^^^^^^^^^^^^^^^",
"^^^^^^^^^^^^^^;77777777777777777777777777777777777777777777777777777777777777777777777777777777777777777777777776:^^^^^^^^^^^^^^",
"^^^^^^^^^^^^^$7777777777777777777777777777777777777777777777777777777777777777777777777777777777777777777777777777%^^^^^^^^^^^^^",
"^^^^^^^^^^^^^677777777777777777777777777777777777777777777777777777777777777777777777776787777777777777777777777776^^^^^^^^^^^^^",
"^^^^^^^^^^^^2777777777777777777777777777777777777777777777777777777777777777777777777779MRg7777777777777777777777772^^^^^^^^^^^^",
"^^^^^^^^^^^;77777777777777777777777777777777777777777777777777777777777777777777777777tK~~~m877777777777777777777777;^^^^^^^^^^^",
"^^^^^^^^^^ 77777777777777777777777777777777777777777777777777777777777777777777777777hE~~~~~Je77777777777777777777777 ^^^^^^^^^^",
"^^^^^^^^^^27777777777777777777777777777777777777777777777777777777777777777777777779B~~~~~~~~Rf67777777777777777777772^^^^^^^^^^",
"^^^^^^^^^*677777777777777777777777777777777777777777777777777777777777777777777777uL~~~~~~~~~~~b9777777777777777777777*^^^^^^^^^",
"^^^^^^^^^677777777777777777777777777777777777777777777777777777777777777777777767kW~~~~~~~~~~~~~Gq777777777777777777776^^^^^^^^^",
"^^^^^^^^;7777777777777777777777777777777777777777777777777777777777777777777777qV~~~~~~~~~~~~~~~~Ts77777777777777777776:^^^^^^^^",
"^^^^^^^^6777777777777777777777777777777777777777777777777777777777777777777777iU~~~~~~~~~~~~~~~~~~Qv87777777777777777776^^^^^^^^",
"^^^^^^^,777777777777777777777777777777777777777777777777777777777777777777778zQ~~~~~~~~~~~~~~~~~~~~~Dq777777777777777777,^^^^^^^",
"^^^^^^^77777777777777777777777777777777777777777777777777777777777777777777qS~~~~~~~~~~~~~~~~~~~~~~~~Ui777777777777777777^^^^^^^",
"^^^^^^>7777777777777777777777777777777777777777777777777777777777777777777aY~~~~~~~~~~~~~~~~~~~~~~~~~~Ql87777777777777777>^^^^^^",
"^^^^^^6777777777777777777777777777777777777777777777777777777777777777768v!~~~~~~~~~~~~~~~~~~~~~~~~~~~~~A07777777777777776^^^^^^",
"^^^^^=77777777777777777777777777777777777777777777777777777777777777777eF~~~~~~~~~~~~~~~~~~~~~~~~~~~~~~~~Pu777777777777777-^^^^^",
"^^^^^67777777777777777777777777777777777777777777777777777777777777777dT~~~~~~~~~~~~~~~~~~~~~~~~~~~~~~~~~~Qh777777777777776^^^^^",
"^^^^o7777777777777777777777777777777777777777777777777777777777777779n!~~~~~~~~~~~~~~~~~~~~~~~~~~~~~~~~~~~~~B07777777777777O^^^^",
"^^^^,67777777777777777777777777777777777777777777777777777777777777eH~~~~~~~~~~~~~~~~~~~~~~~~~~~~~~~~~~~~~~~~Z7777777777777<^^^^",
"^^^^67777777777777777777777777777777777777777777777777777777777777gE~~~~~~~~~~~~~~~~~~~~~~~~~~~~~~~~~~~~~~~~Wl77777777777776^^^^",
"^^^$7777777777777777777777777777777777777777777777777777777777779m~~~~~~~~~~~~~~~~~~~~~~~~~~~~~~~~~~~~~~~~QNe777777777777777#^^^",
"^^^,77777777777777777777777777777777777777777777777777777777777tK~~~~~~~~~~~~~~~~~~~~~~~~~~~~~~~~~~~~~~~QNe77777777777777777<^^^",
"^^^67777777777777777777777777777777777777777777777777777777787hW~~~~~~~~~~~~~~~~~~~~~~~~~~~~~~~~~~~~~~QBe77777777777777777776^^^",
"^^X7777777777777777777777777777777777777777777777777777777779B~~~~~~~~~~~~~~~~~~~~~~~~~~~~~~~~~~~~~~QBr7777777777777777777777X^^",
"^^=67777777777777777777777777777777777777777777777777777777yL~~~~~~~~~~~~~~~~~~~~~~~~~~~~~~~~~~~~~QZr777777777777777777777777=^^",
"^^17777777777777777777777777777777777777777777777777777767kQ~~~~~~~~~~~~~~~~~~~~~~~~~~~~~~~~~~~~QZy777777777777777777777777772^^",
"^^677777777777777777777777777777777777777777777777777777qZ~~~~~~~~~~~~~~~~~~~~~~~~~~~~~~~~~~~~!Zy77777777777777777777777777777^^",
"^^77777777777777777777777777777777777777777777777777777pI~~~~~~~~~~~~~~~~~~~~~~~~~~~~~~~~~~~~Ay7777777777777777777777777777777^^",
"^$7777777777777777777777777777777777777777777777777778zQ~~~~~~~~~~~~~~~~~~~~~~~~~~~~~~~~~~~Su777777777777777777777777777777777$^",
"^-77777777777777777777777777777777777777777777777777qD~~~~~~~~~~~~~~~~~~~~~~~~~~~~~~~~~~~Du77777777777777777777777777777777777-^",
"^,7777777777777777777777777777777777777777777777777sY~~~~~~~~~~~~~~~~~~~~~~~~~~~~~~~~~~Du7777777777777777777777777777777777777<^",
"^5777777777777777777777777777777777777777777777778n!~~~~~~~~~~~~~~~~~~~~~~~~~~~~~~~~~Dp7777777777777777777777777777777777777766^",
"^77777777777777777777777777777777777777777777777eG~~~~~~~~~~~~~~~~~~~~~~~~~~~~~~~~~Gs777777777777777777777777777777777777777777^",
"^7777777777777777777777777777777777777777777777fT~~~~~~~~~~~~~~~~~~~~~~~~~~~~~~~~Ha67777777777777777777777777777777777777777777^",
"^777777777777777777777777777777777777777777776n~~~~~~~~~~~~~~~~~~~~~~~~~~~~~~~~~g7777777777777777777777777777777777777777777777^",
" 77777777777777777777777777777777777777777777q~~~~~~~~~~~~~~~~~~~~~~~~~~~~~~~~~Qa7777777777777777777777777777777777777777777776X",
"o777777777777777777777777777777777777777777777jE~~~~~~~~~~~~~~~~~~~~~~~~~~~~~~~~Qc877777777777777777777777777777777777777777777o",
"+7777777777777777777777777777777777777777777777rH~~~~~~~~~~~~~~~~~~~~~~~~~~~~~~~~~Jy7777777777777777777777777777777777777777777@",
"#777777777777777777777777777777777777777777777778bQ~~~~~~~~~~~~~~~~~~~~~~~~~~~~~~~~Qc877777777777777777777777777777777777777777#",
"%7777777777777777777777777777777777777777777777767aI~~~~~~~~~~~~~~~~~~~~~~~~~~~~~~~~~Jt7777777777777777777777777777777777777777%",
"%77777777777777777777777777777777777777777777777777qV~~~~~~~~~~~~~~~~~~~~~~~~~~~~~~~~~Wl877777777777777777777777777777777777777&",
"#7777777777777777777777777777777777777777777777777777gR~~~~~~~~~~~~~~~~~~~~~~~~~~~~~~~~~Jr7777777777777777777777777777777777777$",
"O77777777777777777777777777777777777777777777777777777eH~~~~~~~~~~~~~~~~~~~~~~~~~~~~~~~~~Wl877777777777777777777777777777777777@",
"X7777777777777777777777777777777777777777777777777777778zQ~~~~~~~~~~~~~~~~~~~~~~~~~~~~~~~~~Gr7787777777777777777777777777777777o",
".77777777777777777777777777777777777777777777777777777778iI~~~~~~~~~~~~~~~~~~~~~~~~~~~~~~~~~Ek867777777777777777777777777777777X",
"^777777777777777777777777777777777777777777777777777777777d~~~~~~~~~~~~~~~~~~~~~~~~~~~~~~~~~~~De7777777777777777777777777777776^",
"^77777777777777777777777777777777777777777777777777777777iK~~~~~~~~~~~~~~~~~~~~~~~~~~~~~~~~~~~~Rj877777777777777777777777777777^",
"^777777777777777777777777777777777777777777777777777777eB!~~~~~~~~~~~~~~~~~~~~~~~~~~~~~~~~~~~~~~~V77777777777777777777777777777^",
"^67777777777777777777777777777777777777777777777777778cE~~~~~~~~~~~~~~~~~~~~~~~~~~~~~~~~~~~~~~~~QN77777777777777777777777777776^",
"^,77777777777777777777777777777777777777777777777777fU~~~~~~~~~~~~~~~~~~~~~~~~~~~~~~~~~~~~~~~UNfq77777777777777777777777777777<^",
"^-777777777777777777777777777777777777777777777777iH~~~~~~~~~~~~~~~~~~~~~~~~~~~~~~~~~~~~~RSkr877777777777777777777777777777777-^",
"^$7777777777777777777777777777777777777777777777qB!~~~~~~~~~~~~~~~~~~~~~~~~~~~~~~~~~~QJba8777777777777777777777777777777777777$^",
"^^777777777777777777777777777777777777777777769xE~~~~~~~~~~~~~~~~~~~~~~~~~~~~~~~~~IBgq7777777777777777777777777777777777777777^^",
"^^6777777777777777777777777777777777777777777fI~~~~~~~~~~~~~~~~~~~~~~~~~~~~~~~EDlt67777777777777777777777777777777777777777776^^",
"^^27777777777777777777777777777777777777777uG~~~~~~~~~~~~~~~~~~~~~~~~~~~~~QJna977777777777777777777777777777777777777777777774^^",
"^^*77777777777777777777777777777777777777qBQ~~~~~~~~~~~~~~~~~~~~~~~~~~~IBfq77777777777777777777777777777777777777777777777777-^^",
"^^X6777777777777777777777777777777777778xR~~~~~~~~~~~~~~~~~~~~~~~~~EDlt877777777777777777777777777777777777777777777777777777X^^",
"^^^67777777777777777777777777777777777dP~~~~~~~~~~~~~~~~~~~~~~~QKna8777777777777777777777777777777777777777777777777777777776^^^",
"^^^<77777777777777777777777777777777yF~~~~~~~~~~~~~~~~~~~~~~UBgq877777777777777777777777777777777777777777777777777777777777<^^^",
"^^^$777777777777777777777777777777qNQ~~~~~~~~~~~~~~~~~~~RDkr8777777777777777777777777777777777777777777777777777777777777777$^^^",
"^^^^67777777777777777777777777778lR~~~~~~~~~~~~~~~~~QJnaq7777777777777777777777777777777777777777777777777777777777777777776^^^^",
"^^^^,77777777777777777777777777dL~~~~~~~~~~~~~~~~UBgq7777777777777777777777777777777777777777777777777777777777777777777777<^^^^",
"^^^^o687777777777777777777777tD~~~~~~~~~~~~~~ESkt87787777777777777777777777777777777777777777777777777777777777777777777776O^^^^",
"^^^^^6777777777777777777777qMQ~~~~~~~~~~~QJna877777777777777777777777777777777777777777777777777777777777777777777777777776^^^^^",
"^^^^^-77777777777777777788kT~~~~~~~~~~UNfe77777777777777777777777777777777777777777777777777777777777777777777777777777777-^^^^^",
"^^^^^^677777777777777777sK~~~~~~~~RDkr777777777777777777777777777777777777777777777777777777777777777777777777777777777776^^^^^^",
"^^^^^^>777777777777778tD~~~~~~QJbi977777777777777777777777777777777777777777777777777777777777777777777777777777777777777,^^^^^^",
"^^^^^^^7777777777777qnQ~~~!INf9776777777777777777777777777777777777777777777777777777777777777777777777777777777777777777^^^^^^^",
"^^^^^^^,777777777777V~~RAkr877777777777777777777777777777777777777777777777777777777777777777777777777777777777777777777,^^^^^^^",
"^^^^^^^^777777777777abp8777777777777777777777777777777777777777777777777777777777777777777777777777777777777777777777776^^^^^^^^",
"^^^^^^^^;77777777777777777777777777777777777777777777777777777777777777777777777777777777777777777777777777777777777777:^^^^^^^^",
"^^^^^^^^^77777777777777777777777777777777777777777777777777777777777777777777777777777777777777777777777777777777777776^^^^^^^^^",
"^^^^^^^^^=777777777777777777777777777777777777777777777777777777777777777777777777777777777777777777777777777777777777=^^^^^^^^^",
"^^^^^^^^^^377777777777777777777777777777777777777777777777777777777777777777777777777777777777777777777777777777777772^^^^^^^^^^",
"^^^^^^^^^^ 6777777777777777777777777777777777777777777777777777777777777777777777777777777777777777777777777777777777.^^^^^^^^^^",
"^^^^^^^^^^^;77777777777777777777777777777777777777777777777777777777777777777777777777777777777777777777777777777777;^^^^^^^^^^^",
"^^^^^^^^^^^^27777777777777777777777777777777777777777777777777777777777777777777777777777777777777777777777777777774^^^^^^^^^^^^",
"^^^^^^^^^^^^^677777777777777777777777777777777777777777777777777777777777777777777777777777777777777777777777777776^^^^^^^^^^^^^",
"^^^^^^^^^^^^^%7777777777777777777777777777777777777777777777777777777777777777777777777777777777777777777777777777%^^^^^^^^^^^^^",
"^^^^^^^^^^^^^^;77777777777777777777777777777777777777777777777777777777777777777777777777777777777777777777777777>^^^^^^^^^^^^^^",
"^^^^^^^^^^^^^^^47777777777777777777777777777777777777777777777777777777777777777777777777777777777777777777777774^^^^^^^^^^^^^^^",
"^^^^^^^^^^^^^^^^377777777777777777777777777777777777777777777777777777777777777777777777777777777777777777777773^^^^^^^^^^^^^^^^",
"^^^^^^^^^^^^^^^^^6677777777777777777777777777777777777777777777777777777777777777777777777777777777777777777776^^^^^^^^^^^^^^^^^",
"^^^^^^^^^^^^^^^^^.67777777777777777777777777777777777777777777777777777777777777777777777777777777777777777776.^^^^^^^^^^^^^^^^^",
"^^^^^^^^^^^^^^^^^^o777777777777777777777777777777777777777777777777777777777777777777777777777777777777777777o^^^^^^^^^^^^^^^^^^",
"^^^^^^^^^^^^^^^^^^^X6777777777777777777777777777777777777777777777777777777777777777777777777777777777777776o^^^^^^^^^^^^^^^^^^^",
"^^^^^^^^^^^^^^^^^^^^ 67777777777777777777777777777777777777777777777777777777777777777777777777777777777776 ^^^^^^^^^^^^^^^^^^^^",
"^^^^^^^^^^^^^^^^^^^^^^477777777777777777777777777777777777777777777777777777777777777777777777777777777773^^^^^^^^^^^^^^^^^^^^^^",
"^^^^^^^^^^^^^^^^^^^^^^^2777777777777777777777777777777777777777777777777777777777777777777777777777777772^^^^^^^^^^^^^^^^^^^^^^^",
"^^^^^^^^^^^^^^^^^^^^^^^^:777777777777777777777777777777777777777777777777777777777777777777777777777777:^^^^^^^^^^^^^^^^^^^^^^^^",
"^^^^^^^^^^^^^^^^^^^^^^^^^&6777777777777777777777777777777777777777777777777777777777777777777777777776*^^^^^^^^^^^^^^^^^^^^^^^^^",
"^^^^^^^^^^^^^^^^^^^^^^^^^^ 47777777777777777777777777777777777777777777777777777777777777777777777773 ^^^^^^^^^^^^^^^^^^^^^^^^^^",
"^^^^^^^^^^^^^^^^^^^^^^^^^^^^;6777777777777777777777777777777777777777777777777777777777777777777777;^^^^^^^^^^^^^^^^^^^^^^^^^^^^",
"^^^^^^^^^^^^^^^^^^^^^^^^^^^^^ 47777777777777777777777777777777777777777777777777777777777777777672.^^^^^^^^^^^^^^^^^^^^^^^^^^^^^",
"^^^^^^^^^^^^^^^^^^^^^^^^^^^^^^^*6777777777777777777777777777777777777777777777777777777777777776=^^^^^^^^^^^^^^^^^^^^^^^^^^^^^^^",
"^^^^^^^^^^^^^^^^^^^^^^^^^^^^^^^^^>777777777777777777777777777777777777777777777777777777777776,^^^^^^^^^^^^^^^^^^^^^^^^^^^^^^^^^",
"^^^^^^^^^^^^^^^^^^^^^^^^^^^^^^^^^^^,67777777777777777777777777777777777777777777777777777777,^^^^^^^^^^^^^^^^^^^^^^^^^^^^^^^^^^^",
"^^^^^^^^^^^^^^^^^^^^^^^^^^^^^^^^^^^^^:6777777777777777777777777777777777777777777777777676>^^^^^^^^^^^^^^^^^^^^^^^^^^^^^^^^^^^^^",
"^^^^^^^^^^^^^^^^^^^^^^^^^^^^^^^^^^^^^^^=577777777777777777777777777777777777777777777776-^^^^^^^^^^^^^^^^^^^^^^^^^^^^^^^^^^^^^^^",
"^^^^^^^^^^^^^^^^^^^^^^^^^^^^^^^^^^^^^^^^^O<677777777777777777777777777777777777777776<O^^^^^^^^^^^^^^^^^^^^^^^^^^^^^^^^^^^^^^^^^",
"^^^^^^^^^^^^^^^^^^^^^^^^^^^^^^^^^^^^^^^^^^^^#,777777777777777777777777777777777766<$^^^^^^^^^^^^^^^^^^^^^^^^^^^^^^^^^^^^^^^^^^^^",
"^^^^^^^^^^^^^^^^^^^^^^^^^^^^^^^^^^^^^^^^^^^^^^^X=467777777777777777777777777772=X^^^^^^^^^^^^^^^^^^^^^^^^^^^^^^^^^^^^^^^^^^^^^^^",
"^^^^^^^^^^^^^^^^^^^^^^^^^^^^^^^^^^^^^^^^^^^^^^^^^^^^$;<677777777767777776<;$^^^^^^^^^^^^^^^^^^^^^^^^^^^^^^^^^^^^^^^^^^^^^^^^^^^^",
"^^^^^^^^^^^^^^^^^^^^^^^^^^^^^^^^^^^^^^^^^^^^^^^^^^^^^^^^^^^.o#$&&$#O.^^^^^^^^^^^^^^^^^^^^^^^^^^^^^^^^^^^^^^^^^^^^^^^^^^^^^^^^^^^"
};
