/* XPM */
static char *_3f6503cb3ea41fa8cf389bf673ddbd3[] = {
/* columns rows colors chars-per-pixel */
"32 32 105 2 ",
"   c #081A69",
".  c #091A6B",
"X  c #091A6C",
"o  c #091B6C",
"O  c #091A6D",
"+  c #0C2494",
"@  c #0C2495",
"#  c #0D269A",
"$  c #0D269B",
"%  c #0D269C",
"&  c #0D269D",
"*  c #0E2AAC",
"=  c #0E2AAD",
"-  c #0E2AAE",
";  c #0E2BAF",
":  c #0F2CB5",
">  c #0F2CB6",
",  c #0F2DBB",
"<  c #0F2DBC",
"1  c #102EBD",
"2  c #102FBF",
"3  c #102FC0",
"4  c #102FC1",
"5  c #1030C8",
"6  c #1031C9",
"7  c #1235D8",
"8  c #1335D8",
"9  c #1336D8",
"0  c #1436D8",
"q  c #1437D8",
"w  c #1537D8",
"e  c #1538D8",
"r  c #183AD8",
"t  c #1B3DD9",
"y  c #1D3ED9",
"u  c #2142DA",
"i  c #2344DA",
"p  c #2444DB",
"a  c #2545DB",
"s  c #2747DB",
"d  c #2949DB",
"f  c #2B4ADC",
"g  c #2C4BDC",
"h  c #2F4DDC",
"j  c #3552DD",
"k  c #3754DE",
"l  c #3A57DE",
"z  c #435FE0",
"x  c #4561E0",
"c  c #4662E0",
"v  c #4762E0",
"b  c #4B65E1",
"n  c #4C66E1",
"m  c #4E68E1",
"M  c #536CE2",
"N  c #6077E4",
"B  c #6279E5",
"V  c #637AE5",
"C  c #647BE5",
"Z  c #667CE5",
"A  c #6D83E7",
"S  c #7287E7",
"D  c #7489E8",
"F  c #778BE8",
"G  c #788CE8",
"H  c #798CE8",
"J  c #7E91E9",
"K  c #8799EB",
"L  c #899AEB",
"P  c #8C9DEC",
"I  c #8D9EEC",
"U  c #95A4ED",
"Y  c #A3B0EF",
"T  c #AAB6F0",
"R  c #ABB7F1",
"E  c #B1BCF2",
"W  c #B7C2F3",
"Q  c #B8C2F3",
"!  c #BAC4F3",
"~  c #C3CCF5",
"^  c #C5CDF5",
"/  c #C7D0F5",
"(  c #CBD3F6",
")  c #CCD4F6",
"_  c #CDD4F6",
"`  c #D5DBF8",
"'  c #D8DDF8",
"]  c #D8DEF8",
"[  c #DAE0F8",
"{  c #E0E4F9",
"}  c #E3E7FA",
"|  c #E6E9FA",
" . c #EBEEFB",
".. c #F2F4FC",
"X. c #F4F5FD",
"o. c #F4F6FD",
"O. c #F5F6FD",
"+. c #F5F7FD",
"@. c #F7F8FD",
"#. c #F9FAFE",
"$. c #FCFCFE",
"%. c #FDFDFE",
"&. c #FEFEFE",
"*. c gray100",
"=. c None",
/* pixels */
"=.=.=.=.=.=.=.=.=.=.=.=.. + - , , - + . =.=.=.=.=.=.=.=.=.=.=.=.",
"=.=.=.=.=.=.=.=.=.. 2 7 7 7 7 7 7 7 7 7 7 2 . =.=.=.=.=.=.=.=.=.",
"=.=.=.=.=.=.=.=.5 7 7 7 7 7 7 7 7 7 7 7 7 7 7 5 =.=.=.=.=.=.=.=.",
"=.=.=.=.=.=.$ 7 7 7 7 7 7 7 7 7 7 7 7 7 7 7 7 7 7 % =.=.=.=.=.=.",
"=.=.=.=.=.: 7 7 7 7 7 7 7 7 7 7 7 7 7 7 7 7 7 7 7 7 : =.=.=.=.=.",
"=.=.=.=.: 7 7 7 7 7 7 7 7 7 7 7 7 7 7 7 7 7 7 7 7 7 7 : =.=.=.=.",
"=.=.=.$ 7 7 7 7 7 7 7 7 7 7 7 7 7 7 7 7 7 7 g 7 7 7 7 7 $ =.=.=.",
"=.=.=.7 7 7 7 7 7 7 7 7 7 7 7 7 7 7 7 7 u E @.S 7 7 7 7 7 =.=.=.",
"=.=.5 7 7 7 7 7 7 7 7 7 7 7 7 7 7 7 7 c { &.&.&.R y 7 7 7 5 =.=.",
"=.. 7 7 7 7 7 7 7 7 7 7 7 7 7 7 7 7 J #.&.&.&.&.&.] l 7 7 7 o =.",
"=.3 7 7 7 7 7 7 7 7 7 7 7 7 7 7 s ! &.&.&.&.&.&.&.&.O.v 7 7 4 =.",
"=.7 7 7 7 7 7 7 7 7 7 7 7 7 7 m | &.&.&.&.&.&.&.&.` N 7 7 7 7 =.",
"X 7 7 7 7 7 7 7 7 7 7 7 7 w L &.&.&.&.&.&.&.&.] V 0 7 7 7 7 7 X ",
"+ 7 7 7 7 7 7 7 7 7 7 7 f ~ &.&.&.&.&.&.&.[ Z e 7 7 7 7 7 7 7 + ",
"- 7 7 7 7 7 7 7 7 7 7 b  .&.&.&.&.&.&.&.A e 7 7 7 7 7 7 7 7 7 ; ",
", 7 7 7 7 7 7 7 7 7 7 s Q &.&.&.&.&.&.&./ j 7 7 7 7 7 7 7 7 7 2 ",
"< 7 7 7 7 7 7 7 7 7 7 7 7 F @.&.&.&.&.&.&.O.H 7 7 7 7 7 7 7 7 < ",
"- 7 7 7 7 7 7 7 7 7 7 7 7 7 U &.&.&.&.&.&.&.&.^ h 7 7 7 7 7 7 - ",
"+ 7 7 7 7 7 7 7 7 7 7 7 c ( &.&.&.&.&.&.&...W F f 7 7 7 7 7 7 @ ",
"X 7 7 7 7 7 7 7 7 7 f R &.&.&.&.&.&._ I n e 7 7 7 7 7 7 7 7 7 X ",
"=.7 7 7 7 7 7 7 t L O.&.&.&.} Y V s 7 7 7 7 7 7 7 7 7 7 7 7 7 =.",
"=.3 7 7 7 7 7 C { &...W H k 7 7 7 7 7 7 7 7 7 7 7 7 7 7 7 7 4 =.",
"=.. 7 7 7 z ^ ) I n r 7 7 7 7 7 7 7 7 7 7 7 7 7 7 7 7 7 7 7 o =.",
"=.=.5 7 7 M i 7 7 7 7 7 7 7 7 7 7 7 7 7 7 7 7 7 7 7 7 7 7 5 =.=.",
"=.=.=.7 7 7 7 7 7 7 7 7 7 7 7 7 7 7 7 7 7 7 7 7 7 7 7 7 7 =.=.=.",
"=.=.=.$ 7 7 7 7 7 7 7 7 7 7 7 7 7 7 7 7 7 7 7 7 7 7 7 7 % =.=.=.",
"=.=.=.=.: 7 7 7 7 7 7 7 7 7 7 7 7 7 7 7 7 7 7 7 7 7 7 : =.=.=.=.",
"=.=.=.=.=.: 7 7 7 7 7 7 7 7 7 7 7 7 7 7 7 7 7 7 7 7 : =.=.=.=.=.",
"=.=.=.=.=.=.% 7 7 7 7 7 7 7 7 7 7 7 7 7 7 7 7 7 7 % =.=.=.=.=.=.",
"=.=.=.=.=.=.=.=.5 7 7 7 7 7 7 7 7 7 7 7 7 7 7 5 =.=.=.=.=.=.=.=.",
"=.=.=.=.=.=.=.=.=.X 3 7 7 7 7 7 7 7 7 7 7 4 X =.=.=.=.=.=.=.=.=.",
"=.=.=.=.=.=.=.=.=.=.=.=.X + - 2 2 ; + X =.=.=.=.=.=.=.=.=.=.=.=."
};
