/* XPM */
static char *_0f6aaabb54f4b95bb7625f6baaebd79[] = {
/* columns rows colors chars-per-pixel */
"32 32 152 2 ",
"   c #79787C",
".  c #7C7C7F",
"X  c #1800A5",
"o  c #1900A5",
"O  c #1800A6",
"+  c #1900A6",
"@  c #1901A6",
"#  c #1A01A6",
"$  c #1B03A6",
"%  c #1C04A6",
"&  c #1C04A7",
"*  c #1D04A7",
"=  c #1E06A7",
"-  c #2008A8",
";  c #2108A8",
":  c #2109A9",
">  c #220BA9",
",  c #230BA9",
"<  c #230CA9",
"1  c #240CA9",
"2  c #250EAA",
"3  c #2710AA",
"4  c #2811AB",
"5  c #2911AB",
"6  c #2912AB",
"7  c #2A13AC",
"8  c #2D16AD",
"9  c #2E18AD",
"0  c #2F18AD",
"q  c #2F19AD",
"w  c #3019AE",
"e  c #301AAE",
"r  c #311AAE",
"t  c #311BAE",
"y  c #331DAF",
"u  c #3923B1",
"i  c #3924B0",
"p  c #3C26B2",
"a  c #3D28B3",
"s  c #3E29B3",
"d  c #3F2AB3",
"f  c #4430B5",
"g  c #4733B6",
"h  c #4936B7",
"j  c #4B38B7",
"k  c #4C38B8",
"l  c #503DBA",
"z  c #513EBA",
"x  c #7F7F84",
"c  c #5240BB",
"v  c #5543BB",
"b  c #5644BC",
"n  c #5A48BD",
"m  c #5A48BE",
"M  c #5D4BBE",
"N  c #5E4CBF",
"B  c #604FC0",
"V  c #6352C0",
"C  c #6353C0",
"Z  c #6453C2",
"A  c #6655C1",
"S  c #6655C2",
"D  c #6959C2",
"F  c #6959C3",
"G  c #6F5FC5",
"H  c #7061C5",
"J  c #7364C6",
"K  c #7364C7",
"L  c #7465C7",
"P  c #7566C7",
"I  c #7465C8",
"U  c #7566C8",
"Y  c #7668C8",
"T  c #7A6CC8",
"R  c #7C6EC9",
"E  c #8074C9",
"W  c #8072CC",
"Q  c #8375CD",
"!  c #8578CA",
"~  c #8578CE",
"^  c #877BCF",
"/  c #8A7ECC",
"(  c #828187",
")  c #848287",
"_  c #87868C",
"`  c #8C8B93",
"'  c #8E8D97",
"]  c #92909B",
"[  c #9492A0",
"{  c #9593A1",
"}  c #9895A5",
"|  c #9997A7",
" . c #9D99AE",
".. c #9D9AB0",
"X. c #9F9BB5",
"o. c #A19DBB",
"O. c #A29DBB",
"+. c #A19CBD",
"@. c #8B80CB",
"#. c #8E84CC",
"$. c #9086CC",
"%. c #9388CC",
"&. c #948ACC",
"*. c #9C95C7",
"=. c #9E96C7",
"-. c #9F98C5",
";. c #9890CB",
":. c #9A91CB",
">. c #9186D1",
",. c #9084D3",
"<. c #988DD5",
"1. c #998ED6",
"2. c #9C91D7",
"3. c #A19BC0",
"4. c #A19CC2",
"5. c #A09AC4",
"6. c #A59CDA",
"7. c #A59CDB",
"8. c #A89EDC",
"9. c #AAA1DC",
"0. c #ABA2DD",
"q. c #ACA3DD",
"w. c #B6AEE1",
"e. c #B7B0E2",
"r. c #BAB3E3",
"t. c #C6C0E7",
"y. c #C8C2E7",
"u. c #C9C3E8",
"i. c #CEC8EA",
"p. c #D2CDEC",
"a. c #D4CFED",
"s. c #DEDBF1",
"d. c #DFDCF1",
"f. c #E0DDF2",
"g. c #E3E0F3",
"h. c #E9E6F5",
"j. c #EAE7F6",
"k. c #EAE8F6",
"l. c #EBE9F6",
"z. c #EDEBF7",
"x. c #F1F0F9",
"c. c #F7F7FB",
"v. c #F8F7FB",
"b. c #F9F9FC",
"n. c #FBFBFD",
"m. c #FCFBFD",
"M. c #FDFDFE",
"N. c #FEFEFE",
"B. c #FFFEFE",
"V. c #FFFFFE",
"C. c gray100",
"Z. c None",
/* pixels */
"Z.Z.Z.Z.Z.Z.Z.Z.Z.Z.Z.Z.Z.Z.Z.Z.Z.Z.Z.Z.Z.Z.Z.Z.Z.Z.Z.Z.Z.Z.Z.Z.",
"Z.Z.Z.Z.Z.Z.Z.Z.Z.Z.Z.Z.Z.Z.O.c g 4.Z.Z.Z.Z.Z.Z.Z.Z.Z.Z.Z.Z.Z.Z.",
"Z.Z.Z.Z.Z.Z.Z.Z.Z.Z.Z.Z.{ K + + + + A  .Z.Z.Z.Z.Z.Z.Z.Z.Z.Z.Z.Z.",
"Z.Z.Z.Z.Z.Z.Z.Z.Z.Z.. #.6 + + + + + + < ! _ Z.Z.Z.Z.Z.Z.Z.Z.Z.Z.",
"Z.Z.Z.Z.Z.Z.Z.Z.Z.=.s + + + + + + + + + + y :.Z.Z.Z.Z.Z.Z.Z.Z.Z.",
"Z.Z.Z.Z.Z.Z.Z.X.M + + + + + + + + + + + + + + z +.Z.Z.Z.Z.Z.Z.Z.",
"Z.Z.Z.Z.Z.' R = + + + + + + + + + + + + + + + + % H } Z.Z.Z.Z.Z.",
"Z.Z.Z.Z.&.8 + + + + + + + + + + + + + + + + + + + X 2 @.x Z.Z.Z.",
"Z.Z.Z.z + + + + + + + + + + + + + + + + + + + + + + = k D ( Z.Z.",
"Z.Z.Z.8 + + + + + + + + + + + + + + + + o o 6 n ,.t.a.M > _ Z.Z.",
"Z.Z.Z.8 + + + + + + + + + + + + o o q A 2.p.b.C.x.Q - + > _ Z.Z.",
"Z.Z.Z.8 + + + + + + + + + = s K 9.f.C.C.C.C.m.6.q X + + - _ Z.Z.",
"Z.Z.Z.8 + + + + + + q W w.h.C.C.C.C.C.C.C.u.g + + + + + - _ Z.Z.",
"Z.Z.Z.8 + + + + + + > a.C.C.C.C.C.C.C.g.D + + + + + + + - _ Z.Z.",
"Z.Z.Z.8 + + + + + + + u z.C.C.C.C.C.9.< + + + + + + + + > _ Z.Z.",
"Z.Z.Z.8 + + + + + + + X n m.C.C.C.C.s.2 + + + + + + + + - _ Z.Z.",
"Z.Z.Z.8 + + + + + + + + o ~ C.C.C.C.m.6.o + + + + + + + ; _ Z.Z.",
"Z.Z.Z.8 + + + + + + + o 3 <.C.C.C.C.C.C.B + + + + + + + ; _ Z.Z.",
"Z.Z.Z.8 + + + + + + % Y h.C.C.C.C.C.C.C.k.q + + + + + + > _ Z.Z.",
"Z.Z.Z.8 + + + + + v p.C.C.C.C.C.C.C.d.9.P q + + + + + + - _ Z.Z.",
"Z.Z.Z.8 + + o p e.C.C.C.C.c.i.<.V r + o + + + + + + + + - _ Z.Z.",
"Z.Z.Z.8 + 6 <.c.C.k.r.! z < X + + + + + + + + + + + + + - _ Z.Z.",
"Z.Z.Z.y P t.6.K s % X + + + + + + + + + + + + + + + + + > _ Z.Z.",
"Z.Z.Z.>.r + + + + + + + + + + + + + + + + + + + + + + + V Z.Z.Z.",
"Z.Z.Z.Z.3.j + + + + + + + + + + + + + + + + + + + o d 5.Z.Z.Z.Z.",
"Z.Z.Z.Z.Z.Z.;.r + + + + + + + + + + + + + + + + 6 $.  Z.Z.Z.Z.Z.",
"Z.Z.Z.Z.Z.Z.Z.` E > + + + + + + + + + + + + * U ] Z.Z.Z.Z.Z.Z.Z.",
"Z.Z.Z.Z.Z.Z.Z.Z.Z...C + + + + + + + + + + v +.Z.Z.Z.Z.Z.Z.Z.Z.Z.",
"Z.Z.Z.Z.Z.Z.Z.Z.Z.Z.Z.5.f + + + + + o i *.Z.Z.Z.Z.Z.Z.Z.Z.Z.Z.Z.",
"Z.Z.Z.Z.Z.Z.Z.Z.Z.Z.Z.Z.Z.%.6 + + 1 / ( Z.Z.Z.Z.Z.Z.Z.Z.Z.Z.Z.Z.",
"Z.Z.Z.Z.Z.Z.Z.Z.Z.Z.Z.Z.Z.Z.] T H | Z.Z.Z.Z.Z.Z.Z.Z.Z.Z.Z.Z.Z.Z.",
"Z.Z.Z.Z.Z.Z.Z.Z.Z.Z.Z.Z.Z.Z.Z.Z.Z.Z.Z.Z.Z.Z.Z.Z.Z.Z.Z.Z.Z.Z.Z.Z."
};
