/* XPM */
static char *ad50547bc7764247f945ce8c33fa78c5[] = {
/* columns rows colors chars-per-pixel */
"16 16 72 1 ",
"  c #565077",
". c #57517C",
"X c #58517B",
"o c #1800A5",
"O c #1900A5",
"+ c #1900A6",
"@ c #1A01A6",
"# c #1A02A6",
"$ c #1C03A6",
"% c #1D04A7",
"& c #1E05A7",
"* c #2008A8",
"= c #2109A8",
"- c #220BA9",
"; c #240CAA",
": c #250DAA",
"> c #2810AA",
", c #2911AB",
"< c #2B14AB",
"1 c #2B15AC",
"2 c #2C15AD",
"3 c #2F19AD",
"4 c #331DAF",
"5 c #341EAE",
"6 c #3823B1",
"7 c #3A26B0",
"8 c #3F2AB0",
"9 c #503FAE",
"0 c #595180",
"q c #5A5289",
"w c #5B528F",
"e c #544893",
"r c #53479B",
"t c #5A5094",
"y c #5B5294",
"u c #5B5098",
"i c #5F549B",
"p c #675F97",
"a c #655A9F",
"s c #5B4EA0",
"d c #584AA7",
"f c #5A4CA4",
"g c #5242AD",
"h c #5748A9",
"j c #5441BC",
"k c #5846BD",
"l c #6150C0",
"z c #6150C1",
"x c #6756C3",
"c c #6959C4",
"v c #6F5FC6",
"b c #6F60C6",
"n c #7465C8",
"m c #7769C9",
"M c #9387D4",
"N c #9A8FD7",
"B c #9C91D8",
"V c #A59BDB",
"C c #D0CBEC",
"Z c #DAD7F0",
"A c #E1DDF2",
"S c #E6E3F4",
"D c #E6E4F4",
"F c #E7E4F5",
"G c #E7E5F5",
"H c #F7F6FB",
"J c #F9F9FC",
"K c #FDFDFE",
"L c #FEFEFE",
"P c #FFFEFE",
"I c gray100",
"U c None",
/* pixels */
"UUUUUUU XUUUUUUU",
"UUUUUUg++gUUUUUU",
"UUUUs=++++*fUUUU",
"UUq5++++++++3wUU",
"Ut+++++++++2zxaU",
"Ue+++++6bVZDv+rU",
"Ue+++cDIIHM:++rU",
"Ue+++=CIIn++++rU",
"Ue+++okIID1+++rU",
"Ue++,NJIIAb+++rU",
"Ue%mDCBx4+++++rU",
"Upzj;o++++++++iU",
"UUX8++++++++70UU",
"UUUUw2+++o>uUUUU",
"UUUUUUd&+dUUUUUU",
"UUUUUUUUUUUUUUUU"
};
