/* XPM */
static char *_5133ccbc05e48d0d79f1ffe6ca5762a[] = {
/* columns rows colors chars-per-pixel */
"16 16 150 2 ",
"   c #120EAA",
".  c #0916AE",
"X  c #0A16AE",
"o  c #1611AB",
"O  c #1A16AD",
"+  c #1A17AD",
"@  c #1C19AE",
"#  c #1D19AE",
"$  c #001BB1",
"%  c #031EB1",
"&  c #041DB0",
"*  c #041EB1",
"=  c #051FB1",
"-  c #0420B1",
";  c #0721B2",
":  c #0522B2",
">  c #0820B1",
",  c #0821B2",
"<  c #0922B2",
"1  c #0B23B2",
"2  c #0728B4",
"3  c #0928B4",
"4  c #0A28B4",
"5  c #0B2EB6",
"6  c #0C2FB7",
"7  c #1422B2",
"8  c #1622B2",
"9  c #0535B9",
"0  c #0435BA",
"q  c #0537BA",
"w  c #0537BB",
"e  c #0039BB",
"r  c #003CBC",
"t  c #0F3FBC",
"y  c #262DB5",
"u  c #2A2FB6",
"i  c #2633B7",
"p  c #2734B8",
"a  c #2A36B8",
"s  c #2A37B9",
"d  c #383CBA",
"f  c #3D3FBB",
"g  c #0F41BD",
"h  c #0C44BE",
"j  c #0C45BF",
"k  c #5955B9",
"l  c #5C57BA",
"z  c #0D4BC1",
"x  c #0D4CC1",
"c  c #0C4DC1",
"v  c #0E4EC2",
"b  c #0F4EC2",
"n  c #0555C0",
"m  c #0657C0",
"M  c #0A52C3",
"N  c #0B52C3",
"B  c #0C52C3",
"V  c #0C53C3",
"C  c #0A55C4",
"Z  c #0C55C4",
"A  c #0C57C5",
"S  c #0758C5",
"D  c #0659C6",
"F  c #065AC6",
"G  c #005FC7",
"H  c #335EC0",
"J  c #0060C7",
"K  c #0063CA",
"L  c #0066CB",
"P  c #0067CC",
"I  c #0068CD",
"U  c #0069CE",
"Y  c #006ACE",
"T  c #006ECF",
"R  c #056FCF",
"E  c #0171CF",
"W  c #0371CE",
"Q  c #1070CF",
"!  c #1371CF",
"~  c #006CD0",
"^  c #006DD0",
"/  c #0070D0",
"(  c #0471D0",
")  c #0078DC",
"_  c #0079DD",
"`  c #3560C0",
"'  c #5E58C3",
"]  c #5B59C4",
"[  c #5F5DC5",
"{  c #605AC3",
"}  c #605EC5",
"|  c #655FC6",
" . c #6862C6",
".. c #6566C8",
"X. c #6667C8",
"o. c #6468C9",
"O. c #6D6DCB",
"+. c #6C6FCB",
"@. c #6E6ECB",
"#. c #6570C3",
"$. c #6773C4",
"%. c #7072CC",
"&. c #7375CD",
"*. c #7E72CC",
"=. c #7578CE",
"-. c #7778CE",
";. c #8079CD",
":. c #867ACF",
">. c #857ECE",
",. c #887FCD",
"<. c #0F86D7",
"1. c #1487D6",
"2. c #3C9FDF",
"3. c #259BE6",
"4. c #2C9FE7",
"5. c #7B9BDA",
"6. c #7E9BDA",
"7. c #41A1DE",
"8. c #70B5E3",
"9. c #75B8E3",
"0. c #67C0F2",
"q. c #72C4F2",
"w. c #8F86CF",
"e. c #8982D1",
"r. c #8F88D3",
"t. c #968AD4",
"y. c #968BD5",
"u. c #998ED6",
"i. c #998FD6",
"p. c #89C0E8",
"a. c #8EC4EA",
"s. c #91CCF1",
"d. c #9BD0F2",
"f. c #ABCEE8",
"g. c #B0D1E9",
"h. c #E4EDF5",
"j. c #E7EEF5",
"k. c #EBEFF3",
"l. c #EEF0F4",
"z. c #E9F7FE",
"x. c #ECF8FE",
"c. c #FDFCFB",
"v. c #FFFEFB",
"b. c #FCFDFD",
"n. c #FCFDFE",
"m. c #FCFFFF",
"M. c #FEFEFE",
"N. c #FFFEFE",
"B. c gray100",
"V. c None",
/* pixels */
"V.V.V.V.V.V.V.t.u.V.V.V.V.V.V.V.",
"V.V.V.V.V.V.] O @ } V.V.V.V.V.V.",
"V.V.V.V.%.i % 6 5 & a -.V.V.V.V.",
"V.V.e.d : q c M B c q $ u >.V.V.",
"V.*.  : j F I T I G n H #.l w.V.",
"V.{ . g F E <.2.8.f.k.j.6.8 | V.",
"V...< c L a.c.M.M.M.d.! e < @.V.",
"V.o.2 C ^ 4.x.M.M.q.) R Z 4 @.V.",
"V...2 A ( _ 0.M.M.z.3.T M 4 +.V.",
"V...: r Q s.M.M.M.M.p.K z < +.V.",
"V.] 7 5.j.l.g.9.7.1.E F t .  .V.",
"V.,.k $.` n K I T P F g : o :.V.",
"V.V.;.u $ q c Z M z q < f r.V.V.",
"V.V.V.V.&.a & 6 6 % a -.V.V.V.V.",
"V.V.V.V.V.V.] + @ } V.V.V.V.V.V.",
"V.V.V.V.V.V.V.t.u.V.V.V.V.V.V.V."
};
