/* XPM */
static char *_9e0b7a73a694df2e1f7c9b1081e8571[] = {
/* columns rows colors chars-per-pixel */
"32 32 163 2 ",
"   c #0201A4",
".  c #0B05A7",
"X  c #0305AA",
"o  c #010CAA",
"O  c #090BA9",
"+  c #100BAA",
"@  c #180FAA",
"#  c #0615A3",
"$  c #0415AE",
"%  c #0C13AD",
"&  c #031BAD",
"*  c #091AAF",
"=  c #1D1CA0",
"-  c #1016AE",
";  c #1019AF",
":  c #051DB1",
">  c #0C1CB1",
",  c #151EB0",
"<  c #1B1EB0",
"1  c #2017AC",
"2  c #2118AB",
"3  c #291EAB",
"4  c #0026B3",
"5  c #0B24B3",
"6  c #002BB5",
"7  c #0F29B4",
"8  c #1225B3",
"9  c #122BB5",
"0  c #1A2EB5",
"q  c #0E31B7",
"w  c #0D36B9",
"e  c #033DBE",
"r  c #0C3BBB",
"t  c #1231B7",
"y  c #1034B8",
"u  c #2527B3",
"i  c #2B24B1",
"p  c #2A2CB4",
"a  c #332BB2",
"s  c #382EB0",
"d  c #3636B7",
"f  c #3C34B7",
"g  c #3737B8",
"h  c #3B34B8",
"j  c #3A3CBA",
"k  c #4237A7",
"l  c #0A44BE",
"z  c #0948BF",
"x  c #0654B9",
"c  c #0956B8",
"v  c #0058BF",
"b  c #285DB8",
"n  c #2B60B7",
"m  c #4649BF",
"M  c #5A4BBE",
"N  c #615EBF",
"B  c #5675BD",
"V  c #0447C0",
"C  c #064CC2",
"Z  c #084CC1",
"A  c #0555C4",
"S  c #0955C4",
"D  c #065AC6",
"F  c #0A59C7",
"G  c #065FC8",
"H  c #095FC9",
"J  c #1F57C3",
"K  c #2359C4",
"L  c #0465CA",
"P  c #0960C9",
"I  c #026ACD",
"U  c #0070CD",
"Y  c #006ED0",
"T  c #0274D2",
"R  c #027BD5",
"E  c #007BD9",
"W  c #5356C3",
"Q  c #6455C2",
"!  c #6967C2",
"~  c #6466C8",
"^  c #7466C8",
"/  c #7272CC",
"(  c #7B75CD",
")  c #8379C6",
"_  c #827FD0",
"`  c #1483CF",
"'  c #0A80D0",
"]  c #0386DD",
"[  c #3A90CF",
"{  c #368CD7",
"}  c #2491D7",
"|  c #2F95D5",
" . c #0086E2",
".. c #008AE4",
"X. c #0291E7",
"o. c #0096EA",
"O. c #0D9CEC",
"+. c #3E9EE1",
"@. c #4394CF",
"#. c #4291D9",
"$. c #5DA5DC",
"%. c #55A8DC",
"&. c #6FA8D3",
"*. c #62ABDD",
"=. c #78ACD4",
"-. c #5AACE5",
";. c #54B1EA",
":. c #67B8EC",
">. c #69BAEC",
",. c #77C0EE",
"<. c #9289CC",
"1. c #929ECD",
"2. c #8480D0",
"3. c #8983D2",
"4. c #918CD5",
"5. c #9B97D9",
"6. c #9998D9",
"7. c #A099D9",
"8. c #93A4DF",
"9. c #A6A5DD",
"0. c #AEA7DE",
"q. c #9FBEE7",
"w. c #B5B4E3",
"e. c #C0BFE6",
"r. c #A7C4DD",
"t. c #ADC8DF",
"y. c #8CC2E3",
"u. c #98C7E3",
"i. c #96D7F8",
"p. c #A9C4E9",
"a. c #AFD2EA",
"s. c #AADCF7",
"d. c #BFDDF2",
"f. c #B1E1F8",
"g. c #C1C1E7",
"h. c #CAC5E8",
"j. c #CFCDEB",
"k. c #CFD2E4",
"l. c #C1DAEB",
"z. c #D2D4E3",
"x. c #D5D2EC",
"c. c #D8D7EE",
"v. c #DFDDF1",
"b. c #CBE0ED",
"n. c #D5E0EB",
"m. c #D9E3EC",
"M. c #CDE4F5",
"N. c #CAEBFB",
"B. c #D7E8F1",
"V. c #D3EEFB",
"C. c #DCF0FA",
"Z. c #E5E3F3",
"A. c #E8E7F4",
"S. c #E2ECF2",
"D. c #EEEDF7",
"F. c #F0EEF7",
"G. c #ECF2F5",
"H. c #EAF6FC",
"J. c #F2F5F6",
"K. c #F5F3F9",
"L. c #F7F8F8",
"P. c #FDFEFE",
"I. c None",
/* pixels */
"I.I.I.I.I.I.I.I.I.I.I.I.I.I.I.I.I.I.I.I.I.I.I.I.I.I.I.I.I.I.I.I.",
"I.I.I.I.I.I.I.I.I.I.I.I.I.I.h.M Q x.I.I.I.I.I.I.I.I.I.I.I.I.I.I.",
"I.I.I.I.I.I.I.I.I.I.I.I.v.( @     1 3.A.I.I.I.I.I.I.I.I.I.I.I.I.",
"I.I.I.I.I.I.I.I.I.I.F.6.p   - , < %   d 0.I.I.I.I.I.I.I.I.I.I.I.",
"I.I.I.I.I.I.I.I.I.w.m X * 9 7 7 7 8 9 $ O W w.I.I.I.I.I.I.I.I.I.",
"I.I.I.I.I.I.I.j.~ % $ t q w w w r w q q 7 $ ; / c.I.I.I.I.I.I.I.",
"I.I.I.I.I.Z._ < o 9 y w r l l Z V Z l r r w 7 o u 4.F.I.I.I.I.I.",
"I.I.I.K.7.a   > t w l z Z A F F F A S Z l r w 0 > X h 5.I.I.I.I.",
"I.I.F.Q   O 8 9 w l Z A G L I I I I L G F Z e 6 & # = k <.I.I.I.",
"I.I.x.1 + , 7 w l Z D L U T R R R R I L A x b B 1.z.k.N s D.I.I.",
"I.I.c.i % 8 q l Z D I T R E E E R ` [ &.r.n.L.P.P.8.0   f F.I.I.",
"I.I.c.i % 7 r z D L I U R } %.y.l.G.P.P.P.P.P.p.K 4 7 % d F.I.I.",
"I.I.c.p > w r C G I *.a.B.P.P.P.P.P.P.P.P.M.#.A C r q $ h F.I.I.",
"I.I.c.p > w l A L Y -.P.P.P.P.P.P.P.P.H.>.R I L S l w : j F.I.I.",
"I.I.c.p 5 w z D I R E ,.P.P.P.P.P.P.f.O. .] R I S V w : j F.I.I.",
"I.I.c.p 5 r C D I R ] ..s.P.P.P.P.P.V.O...] R I F l r : j F.I.I.",
"I.I.n.p 5 r z D I R ] X.O.N.P.P.P.P.P.s...] R I D l w 5 j D.I.I.",
"I.I.c.p 5 r z D I R ] ..o.i.P.P.P.P.P.P.:.R T I D l w : j D.I.I.",
"I.I.c.p : q l A I I R ;.C.P.P.P.P.P.P.P.P.+.I L A l w * j F.I.I.",
"I.I.x.p * q l z A { d.P.P.P.P.P.P.P.P.S.l.$.I G Z r q $ j F.I.I.",
"I.I.c.i > 7 4 J q.P.P.P.P.P.J.b.u.*.| ' U I L A l w 7 $ h F.I.I.",
"I.I.c.i   0 8.P.P.L.m.t.=.@.` R R E E R T L D z l q 8 O h F.I.I.",
"I.I.x.3 ! z.z.1.B n c D L Y T R R R T I L F Z l q 7 , . a F.I.I.",
"I.I.D.) k = # & 6 e C D P L I I I I L G A Z l w 7 8 .   ^ I.I.I.",
"I.I.I.F.4.a X 8 t r l Z Z S D D D A A S z r y q ;   f 0.I.I.I.I.",
"I.I.I.I.I.Z._ < o 7 t w r l l C l l l r r y 9 o u 4.F.I.I.I.I.I.",
"I.I.I.I.I.I.I.j.~ % $ t y y w w w w y q t $ ; / c.I.I.I.I.I.I.I.",
"I.I.I.I.I.I.I.I.I.w.m o * 9 7 7 7 7 8 $ o W g.I.I.I.I.I.I.I.I.I.",
"I.I.I.I.I.I.I.I.I.I.K.6.p   ; < , -   g 9.I.I.I.I.I.I.I.I.I.I.I.",
"I.I.I.I.I.I.I.I.I.I.I.I.v.( @     1 3.A.I.I.I.I.I.I.I.I.I.I.I.I.",
"I.I.I.I.I.I.I.I.I.I.I.I.I.I.h.M Q x.I.I.I.I.I.I.I.I.I.I.I.I.I.I.",
"I.I.I.I.I.I.I.I.I.I.I.I.I.I.I.I.I.I.I.I.I.I.I.I.I.I.I.I.I.I.I.I."
};
