/* XPM */
static char *_9891a06028347e7887b9c846015a93c[] = {
/* columns rows colors chars-per-pixel */
"64 64 76 1 ",
"  c #1900A6",
". c #1F07A8",
"X c #2008A7",
"o c #240CA9",
"O c #2710AA",
"+ c #2A14AB",
"@ c #2F18AD",
"# c #321CAE",
"$ c #3620AF",
"% c #3A25B1",
"& c #3E2AB4",
"* c #422EB4",
"= c #4632B5",
"- c #4936B7",
"; c #4D3AB8",
": c #513FBA",
"> c #5542BB",
", c #5947BC",
"< c #5C4BBE",
"1 c #6150BF",
"2 c #6555C1",
"3 c #6758C2",
"4 c #6C5CC4",
"5 c #7364C7",
"6 c #7668C7",
"7 c #7567C8",
"8 c #7B6CC9",
"9 c #7F72CB",
"0 c #8174CC",
"q c #8679CE",
"w c #8B7FD0",
"e c #838383",
"r c #8C8C8C",
"t c #959595",
"y c #9C9C9C",
"u c #A2A2A2",
"i c #AAAAAA",
"p c #B3B3B3",
"a c #BDBDBD",
"s c #8E82D1",
"d c #9286D2",
"f c #968BD3",
"g c #988ED5",
"h c #9D92D6",
"j c #A096D8",
"k c #A49ADA",
"l c #A89FDB",
"z c #ACA4DD",
"x c #B0A7DE",
"c c #B2AADF",
"v c #B6AEE0",
"b c #BAB3E2",
"n c #C3BDE6",
"m c #C4C4C4",
"M c #CDCDCD",
"N c #D4D4D4",
"B c gainsboro",
"V c #C7C1E7",
"C c #C8C2E7",
"Z c #CAC5E9",
"A c #D2CDEC",
"S c #D5D1ED",
"D c #D8D5EE",
"F c #DDDAF0",
"G c #E1DDF2",
"H c #E4E4E4",
"J c #EBEBEB",
"K c #E5E2F3",
"L c #E9E7F5",
"P c #ECEAF6",
"I c #F0EEF7",
"U c #F4F4F5",
"Y c #F4F4F9",
"T c #F8F7FB",
"R c #FEFEFE",
"E c None",
/* pixels */
"EEEEEEEEEEEEEEEEEEEEEEEEEEEEEEEEEEEEEEEEEEEEEEEEEEEEEEEEEEEEEEEE",
"EEEEEEEEEEEEEEEEEEEEEEEEEEEEEEeTTuEEEEEEEEEEEEEEEEEEEEEEEEEEEEEE",
"EEEEEEEEEEEEEEEEEEEEEEEEEEEEEHC=#xUEEEEEEEEEEEEEEEEEEEEEEEEEEEEE",
"EEEEEEEEEEEEEEEEEEEEEEEEEEEMK3    ;ABEEEEEEEEEEEEEEEEEEEEEEEEEEE",
"EEEEEEEEEEEEEEEEEEEEEEEEEuTwX       5LmEEEEEEEEEEEEEEEEEEEEEEEEE",
"EEEEEEEEEEEEEEEEEEEEEEEEUx#          OfYyEEEEEEEEEEEEEEEEEEEEEEE",
"EEEEEEEEEEEEEEEEEEEEEEBA;              %bJEEEEEEEEEEEEEEEEEEEEEE",
"EEEEEEEEEEEEEEEEEEEEaP5                  ,DNEEEEEEEEEEEEEEEEEEEE",
"EEEEEEEEEEEEEEEEEEyYfo                     9PpEEEEEEEEEEEEEEEEEE",
"EEEEEEEEEEEEEEEEEIb%                        +jTrEEEEEEEEEEEEEEEE",
"EEEEEEEEEEEEEEEND,                            *nJEEEEEEEEEEEEEEE",
"EEEEEEEEEEEEEpI8                                2FMEEEEEEEEEEEEE",
"EEEEEEEEEEErTh+                                  .qYiEEEEEEEEEEE",
"EEEEEEEEEEJV*                                      @zUeEEEEEEEEE",
"EEEEEEEEMG2                                          ;ZHEEEEEEEE",
"EEEEEEiYqX                                             4KmEEEEEE",
"EEEEEBx@                                                ohUEEEEE",
"EEEEET&                                              #1jf%REEEEE",
"EEEEET&                                          &5zGRF<  REEEEE",
"EEEEER&                                     .;0bPRRRU0.   REEEEE",
"EEEEET&                                 O>snTRRRRRRk@     REEEEE",
"EEEEER&                             #2hARRRRRRRRRZ-       REEEEE",
"EEEEER&                         &5lFRRRRRRRRRRRK3         REEEEE",
"EEEEER&                    .-0vPRRRRRRRRRRRRRTsX          REEEEE",
"EEEEET&                o>snTRRRRRRRRRRRRRRRRx$            REEEEE",
"EEEEER&              8ZRRRRRRRRRRRRRRRRRRRA:              REEEEE",
"EEEEET&              &YRRRRRRRRRRRRRRRRRP5                REEEEE",
"EEEEER&               2RRRRRRRRRRRRRRRRgO                 TEEEEE",
"EEEEET&                fRRRRRRRRRRRRRb&                   REEEEE",
"EEEEER&                 nRRRRRRRRRRRD                     REEEEE",
"EEEEER&                 +FRRRRRRRRRRRq                    REEEEE",
"EEEEET&                  =TRRRRRRRRRRT=                   REEEEE",
"EEEEER&                   4RRRRRRRRRRRDX                  REEEEE",
"EEEEER&                    hRRRRRRRRRRRh                  REEEEE",
"EEEEET&                    8RRRRRRRRRRRR,                 REEEEE",
"EEEEER&                  >SRRRRRRRRRRRRRKO                REEEEE",
"EEEEET&                $cRRRRRRRRRRRRRRRRv                REEEEE",
"EEEEER&              OfTRRRRRRRRRRRRRRRRRR4               REEEEE",
"EEEEER&             5PRRRRRRRRRRRRRRRRRRKv5               REEEEE",
"EEEEET&           >SRRRRRRRRRRRRRRRRDk4%                  REEEEE",
"EEEEER&         %cRRRRRRRRRRRRRTCd<+                      REEEEE",
"EEEEET&       ofTRRRRRRRRRRPv0;.                          REEEEE",
"EEEEET&      6PRRRRRRRRDj4%                               REEEEE",
"EEEEER&    ,SRRRRRTnd,+                                   TEEEEE",
"EEEEET&  %vRRRKx8=.                                       REEEEE",
"EEEEER&OfYAh3$                                            REEEEE",
"EEEEET18>o                                               XREEEEE",
"EEEEEtU9.                                               2KmEEEEE",
"EEEEEEENF,                                            *CHEEEEEEE",
"EEEEEEEEEJb&                                        +kYrEEEEEEEE",
"EEEEEEEEEEtTgO                                     9UpEEEEEEEEEE",
"EEEEEEEEEEEEaP6                                  ,FNEEEEEEEEEEEE",
"EEEEEEEEEEEEEEBS:                              %bJEEEEEEEEEEEEEE",
"EEEEEEEEEEEEEEEEUv$                          OgTtEEEEEEEEEEEEEEE",
"EEEEEEEEEEEEEEEEEyTso                       5PaEEEEEEEEEEEEEEEEE",
"EEEEEEEEEEEEEEEEEEEmK4                    :SBEEEEEEEEEEEEEEEEEEE",
"EEEEEEEEEEEEEEEEEEEEEHZ-                $cUEEEEEEEEEEEEEEEEEEEEE",
"EEEEEEEEEEEEEEEEEEEEEEeYk@            XsYuEEEEEEEEEEEEEEEEEEEEEE",
"EEEEEEEEEEEEEEEEEEEEEEEEiYq.         4KmEEEEEEEEEEEEEEEEEEEEEEEE",
"EEEEEEEEEEEEEEEEEEEEEEEEEEMG1      -ZHEEEEEEEEEEEEEEEEEEEEEEEEEE",
"EEEEEEEEEEEEEEEEEEEEEEEEEEEEJn*  @lTeEEEEEEEEEEEEEEEEEEEEEEEEEEE",
"EEEEEEEEEEEEEEEEEEEEEEEEEEEEErYhqYiEEEEEEEEEEEEEEEEEEEEEEEEEEEEE",
"EEEEEEEEEEEEEEEEEEEEEEEEEEEEEEEpmEEEEEEEEEEEEEEEEEEEEEEEEEEEEEEE",
"EEEEEEEEEEEEEEEEEEEEEEEEEEEEEEEEEEEEEEEEEEEEEEEEEEEEEEEEEEEEEEEE"
};
