/* XPM */
static char *ba1ccc87474f485a99b571c612b7b9ec[] = {
/* columns rows colors chars-per-pixel */
"128 128 89 1 ",
"  c #7E7E7E",
". c #1900A6",
"X c #1F08A6",
"o c #220BA7",
"O c #240DA8",
"+ c #2710A9",
"@ c #2B14AA",
"# c #2F19AB",
"$ c #321DAD",
"% c #3621AE",
"& c #3924AF",
"* c #3B26B0",
"= c #3E29B1",
"- c #422DB2",
"; c #4633B3",
": c #4936B5",
"> c #4D3BB6",
", c #4F3CB8",
"< c #503EB7",
"1 c #523FB8",
"2 c #5443B9",
"3 c #5947BB",
"4 c #5C4BBC",
"5 c #604FBE",
"6 c #6352BE",
"7 c #6454C2",
"8 c #6758C0",
"9 c #6C5CC2",
"0 c #6F60C3",
"q c #7264C5",
"w c #7768C7",
"e c #796CC7",
"r c #7B6EC9",
"t c #7E70C9",
"y c #8275CB",
"u c #8679CC",
"i c #897DCD",
"p c #848484",
"a c #8C8C8C",
"s c #939393",
"d c #9D9D9D",
"f c #A4A4A4",
"g c #ACACAC",
"h c #B2B2B2",
"j c #BBBBBB",
"k c #8D81CF",
"l c #8E82D0",
"z c #9085D0",
"x c #958AD2",
"c c #998ED4",
"v c #9D92D5",
"b c #A097D7",
"n c #A299D6",
"m c #A59CD8",
"M c #A99FDA",
"N c #ABA3DB",
"B c #B3ABDE",
"V c #B7B0DF",
"C c #B9B2DF",
"Z c #B7B0E0",
"A c #BBB4E1",
"S c #BFB9E2",
"D c #C2BCE4",
"F c #C3C3C3",
"G c #CCCCCC",
"H c #D4D4D4",
"J c #DCDCDC",
"K c #C7C1E6",
"L c #C9C4E7",
"P c #CBC6E8",
"I c #CEC9E9",
"U c #D1CDEA",
"Y c #D5D1ED",
"T c #D9D5EE",
"R c #DDD9EF",
"E c #DFDBF0",
"W c #E1DEF1",
"Q c #E4E4E4",
"! c gray92",
"~ c #E5E3F3",
"^ c #E9E6F4",
"/ c #ECEAF6",
"( c #F0EEF7",
") c #F1EFF8",
"_ c #F3F3F3",
"` c #F4F3F9",
"' c #F8F7FB",
"] c #FEFEFE",
"[ c None",
/* pixels */
"[[[[[[[[[[[[[[[[[[[[[[[[[[[[[[[[[[[[[[[[[[[[[[[[[[[[[[[[[[[[[[[[[[[[[[[[[[[[[[[[[[[[[[[[[[[[[[[[[[[[[[[[[[[[[[[[[[[[[[[[[[[[[[[[",
"[[[[[[[[[[[[[[[[[[[[[[[[[[[[[[[[[[[[[[[[[[[[[[[[[[[[[[[[[[[[[[[[p[[[[[[[[[[[[[[[[[[[[[[[[[[[[[[[[[[[[[[[[[[[[[[[[[[[[[[[[[[[[[[[",
"[[[[[[[[[[[[[[[[[[[[[[[[[[[[[[[[[[[[[[[[[[[[[[[[[[[[[[[[[[[[[[Q]]'s[[[[[[[[[[[[[[[[[[[[[[[[[[[[[[[[[[[[[[[[[[[[[[[[[[[[[[[[[[[[[",
"[[[[[[[[[[[[[[[[[[[[[[[[[[[[[[[[[[[[[[[[[[[[[[[[[[[[[[[[[[[[F]]`W]]![[[[[[[[[[[[[[[[[[[[[[[[[[[[[[[[[[[[[[[[[[[[[[[[[[[[[[[[[[[[",
"[[[[[[[[[[[[[[[[[[[[[[[[[[[[[[[[[[[[[[[[[[[[[[[[[[[[[[[[[[d]]]B%.y)]]H[[[[[[[[[[[[[[[[[[[[[[[[[[[[[[[[[[[[[[[[[[[[[[[[[[[[[[[[[[",
"[[[[[[[[[[[[[[[[[[[[[[[[[[[[[[[[[[[[[[[[[[[[[[[[[[[[[[[[[_]]U<....@n']]g[[[[[[[[[[[[[[[[[[[[[[[[[[[[[[[[[[[[[[[[[[[[[[[[[[[[[[[[",
"[[[[[[[[[[[[[[[[[[[[[[[[[[[[[[[[[[[[[[[[[[[[[[[[[[[[[[[J]]^0X.......;D]]_a[[[[[[[[[[[[[[[[[[[[[[[[[[[[[[[[[[[[[[[[[[[[[[[[[[[[[[",
"[[[[[[[[[[[[[[[[[[[[[[[[[[[[[[[[[[[[[[[[[[[[[[[[[[[[[j]]'c+...........6~]]Q[[[[[[[[[[[[[[[[[[[[[[[[[[[[[[[[[[[[[[[[[[[[[[[[[[[[[",
"[[[[[[[[[[[[[[[[[[[[[[[[[[[[[[[[[[[[[[[[[[[[[[[[[[[s']]A&..............oi`]]G[[[[[[[[[[[[[[[[[[[[[[[[[[[[[[[[[[[[[[[[[[[[[[[[[[[",
"[[[[[[[[[[[[[[[[[[[[[[[[[[[[[[[[[[[[[[[[[[[[[[[[[[!]]T4..................$N]]]f[[[[[[[[[[[[[[[[[[[[[[[[[[[[[[[[[[[[[[[[[[[[[[[[[",
"[[[[[[[[[[[[[[[[[[[[[[[[[[[[[[[[[[[[[[[[[[[[[[[[H]](tX.....................>I]]_[[[[[[[[[[[[[[[[[[[[[[[[[[[[[[[[[[[[[[[[[[[[[[[[",
"[[[[[[[[[[[[[[[[[[[[[[[[[[[[[[[[[[[[[[[[[[[[[[h]]]n@.........................0~]]J[[[[[[[[[[[[[[[[[[[[[[[[[[[[[[[[[[[[[[[[[[[[[[",
"[[[[[[[[[[[[[[[[[[[[[[[[[[[[[[[[[[[[[[[[[[[[p']]D;............................Ox`]]j[[[[[[[[[[[[[[[[[[[[[[[[[[[[[[[[[[[[[[[[[[[[",
"[[[[[[[[[[[[[[[[[[[[[[[[[[[[[[[[[[[[[[[[[[[Q]]W6................................&V]]'d[[[[[[[[[[[[[[[[[[[[[[[[[[[[[[[[[[[[[[[[[[",
"[[[[[[[[[[[[[[[[[[[[[[[[[[[[[[[[[[[[[[[[[G]])iX...................................2T]]![[[[[[[[[[[[[[[[[[[[[[[[[[[[[[[[[[[[[[[[[",
"[[[[[[[[[[[[[[[[[[[[[[[[[[[[[[[[[[[[[[[f']]N$.......................................e/]]H[[[[[[[[[[[[[[[[[[[[[[[[[[[[[[[[[[[[[[[",
"[[[[[[[[[[[[[[[[[[[[[[[[[[[[[[[[[[[[[ _]]I>..........................................+v']]h[[[[[[[[[[[[[[[[[[[[[[[[[[[[[[[[[[[[[",
"[[[[[[[[[[[[[[[[[[[[[[[[[[[[[[[[[[[[J]]^0..............................................=D]]'a[[[[[[[[[[[[[[[[[[[[[[[[[[[[[[[[[[[",
"[[[[[[[[[[[[[[[[[[[[[[[[[[[[[[[[[[j]]'xO.................................................4E]]![[[[[[[[[[[[[[[[[[[[[[[[[[[[[[[[[[",
"[[[[[[[[[[[[[[[[[[[[[[[[[[[[[[[[s]]]Z&...................................................X.y)]]G[[[[[[[[[[[[[[[[[[[[[[[[[[[[[[[[",
"[[[[[[[[[[[[[[[[[[[[[[[[[[[[[[[!]]Y3........................................................#M]]]g[[[[[[[[[[[[[[[[[[[[[[[[[[[[[[",
"[[[[[[[[[[[[[[[[[[[[[[[[[[[[[H]]/r............................................................;P]]_p[[[[[[[[[[[[[[[[[[[[[[[[[[[[",
"[[[[[[[[[[[[[[[[[[[[[[[[[[[h]]]c@...............................................................8~]]Q[[[[[[[[[[[[[[[[[[[[[[[[[[[",
"[[[[[[[[[[[[[[[[[[[[[[[[[a']]S-..................................................................ok`]]F[[[[[[[[[[[[[[[[[[[[[[[[[",
"[[[[[[[[[[[[[[[[[[[[[[[[!]]E4......................................................................%B]]]d[[[[[[[[[[[[[[[[[[[[[[[",
"[[[[[[[[[[[[[[[[[[[[[[G]])yX.........................................................................<U]]_[[[[[[[[[[[[[[[[[[[[[[",
"[[[[[[[[[[[[[[[[[[[[f]]]M#.............................................................................q^]]J[[[[[[[[[[[[[[[[[[[[",
"[[[[[[[[[[[[[[[[[[p_]]L:................................................................................@x']]j[[[[[[[[[[[[[[[[[[",
"[[[[[[[[[[[[[[[[[Q]]~6X...................................................................................=C]]'s[[[[[[[[[[[[[[[[",
"[[[[[[[[[[[[[[[F]]`kO.......................................................................................4T]]![[[[[[[[[[[[[[[",
"[[[[[[[[[[[[[d]]]B%...........................................................................................t/]]H[[[[[[[[[[[[[",
"[[[[[[[[[[[[_]]U<..............................................................................................@b]]]h[[[[[[[[[[[",
"[[[[[[[[[[p]]/q..................................................................................................-D]]H[[[[[[[[[[",
"[[[[[[[[[[Q]N+....................................................................................................Xi]][[[[[[[[[[",
"[[[[[[[[[[']6.................................................................................................O4kSx@]][[[[[[[[[[",
"[[[[[[[[[[']8.............................................................................................$6vU']D-..]][[[[[[[[[[",
"[[[[[[[[[[']8.........................................................................................*qNR]]]]R6....'][[[[[[[[[[",
"[[[[[[[[[[']7....................................................................................X:yV/]]]]]]_yo.....'][[[[[[[[[[",
"[[[[[[[[[[']7................................................................................O3lD`]]]]]]]]]N#.......]][[[[[[[[[[",
"[[[[[[[[[[']7............................................................................#8cI]]]]]]]]]]]]L:.........'][[[[[[[[[[",
"[[[[[[[[[[']6........................................................................=qMR]]]]]]]]]]]]]]~9...........]][[[[[[[[[[",
"[[[[[[[[[[']6...................................................................X;tB^]]]]]]]]]]]]]]]]_zO............]][[[[[[[[[[",
"[[[[[[[[[[']8...............................................................O2kD)]]]]]]]]]]]]]]]]]]]B&..............'][[[[[[[[[[",
"[[[[[[[[[[']8...........................................................@5cI']]]]]]]]]]]]]]]]]]]]]Y2................]][[[[[[[[[[",
"[[[[[[[[[[']7.......................................................&0MT]]]]]]]]]]]]]]]]]]]]]]]]/w..................'][[[[[[[[[[",
"[[[[[[[[[[_]7..................................................X;tB^]]]]]]]]]]]]]]]]]]]]]]]]]]'c@...................'][[[[[[[[[[",
"[[[[[[[[[[']7..............................................X2iD)]]]]]]]]]]]]]]]]]]]]]]]]]]]]]A-.....................]][[[[[[[[[[",
"[[[[[[[[[[']7..........................................@6xI']]]]]]]]]]]]]]]]]]]]]]]]]]]]]]]R5.......................]][[[[[[[[[[",
"[[[[[[[[[[']8......................................&9nR]]]]]]]]]]]]]]]]]]]]]]]]]]]]]]]]]]_y.........................'][[[[[[[[[[",
"[[[[[[[[[[']7..................................;eB~]]]]]]]]]]]]]]]]]]]]]]]]]]]]]]]]]]]]'m#..........................'][[[[[[[[[[",
"[[[[[[[[[[']7.............................o<uA)]]]]]]]]]]]]]]]]]]]]]]]]]]]]]]]]]]]]]]]L:............................]][[[[[[[[[[",
"[[[[[[[[[[']7.............................w]]]]]]]]]]]]]]]]]]]]]]]]]]]]]]]]]]]]]]]]]~8..............................]][[[[[[[[[[",
"[[[[[[[[[[']7..............................M]]]]]]]]]]]]]]]]]]]]]]]]]]]]]]]]]]]]]])ko...............................'][[[[[[[[[[",
"[[[[[[[[[[']7..............................XU]]]]]]]]]]]]]]]]]]]]]]]]]]]]]]]]]]]]B%.................................'][[[[[[[[[[",
"[[[[[[[[[[']7...............................%/]]]]]]]]]]]]]]]]]]]]]]]]]]]]]]]]]U,...................................]][[[[[[[[[[",
"[[[[[[[[[[']6................................2']]]]]]]]]]]]]]]]]]]]]]]]]]]]]]/q.....................................'][[[[[[[[[[",
"[[[[[[[[[[]]7.................................u]]]]]]]]]]]]]]]]]]]]]]]]]]]]'cO......................................]][[[[[[[[[[",
"[[[[[[[[[[']7..................................B]]]]]]]]]]]]]]]]]]]]]]]]]]C=........................................]][[[[[[[[[[",
"[[[[[[[[[[']7..................................+T]]]]]]]]]]]]]]]]]]]]]]]]i..........................................'][[[[[[[[[[",
"[[[[[[[[[[_]7...................................*)]]]]]]]]]]]]]]]]]]]]]]]RO.........................................]][[[[[[[[[[",
"[[[[[[[[[[']6....................................4']]]]]]]]]]]]]]]]]]]]]]]M.........................................'][[[[[[[[[[",
"[[[[[[[[[[']6.....................................k]]]]]]]]]]]]]]]]]]]]]]]]4........................................'][[[[[[[[[[",
"[[[[[[[[[[']8......................................C]]]]]]]]]]]]]]]]]]]]]]]!#.......................................]][[[[[[[[[[",
"[[[[[[[[[[']8......................................@R]]]]]]]]]]]]]]]]]]]]]]]V.......................................]][[[[[[[[[[",
"[[[[[[[[[[']6.......................................-_]]]]]]]]]]]]]]]]]]]]]]]q......................................'][[[[[[[[[[",
"[[[[[[[[[[']8........................................6]]]]]]]]]]]]]]]]]]]]]]])&.....................................'][[[[[[[[[[",
"[[[[[[[[[[']7.........................................c]]]]]]]]]]]]]]]]]]]]]]]L.....................................]][[[[[[[[[[",
"[[[[[[[[[[']7..........................................D]]]]]]]]]]]]]]]]]]]]]]]i....................................]][[[[[[[[[[",
"[[[[[[[[[[']7..........................................;]]]]]]]]]]]]]]]]]]]]]]]];...................................]][[[[[[[[[[",
"[[[[[[[[[[']7........................................ok`]]]]]]]]]]]]]]]]]]]]]]]]To..................................'][[[[[[[[[[",
"[[[[[[[[[[']7.......................................9~]]]]]]]]]]]]]]]]]]]]]]]]]]]v..................................]][[[[[[[[[[",
"[[[[[[[[[[']6.....................................>I]]]]]]]]]]]]]]]]]]]]]]]]]]]]]]4.................................'][[[[[[[[[[",
"[[[[[[[[[[']8...................................%N]]]]]]]]]]]]]]]]]]]]]]]]]]]]]]]]~#................................]][[[[[[[[[[",
"[[[[[[[[[[']7.................................Ok_]]]]]]]]]]]]]]]]]]]]]]]]]]]]]]]]]]B................................]][[[[[[[[[[",
"[[[[[[[[[[']7................................6!]]]]]]]]]]]]]]]]]]]]]]]]]]]]]]]]]]]]]q...............................'][[[[[[[[[[",
"[[[[[[[[[[']7..............................>I]]]]]]]]]]]]]]]]]]]]]]]]]]]]]]]]]]]]]]])&..............................]][[[[[[[[[[",
"[[[[[[[[[[']7............................%B]]]]]]]]]]]]]]]]]]]]]]]]]]]]]]]]]]]]]]]]]`x..............................'][[[[[[[[[[",
"[[[[[[[[[[']7..........................oz`]]]]]]]]]]]]]]]]]]]]]]]]]]]]]]]]]]]]]]/Zy:X...............................'][[[[[[[[[[",
"[[[[[[[[[[']7.........................0^]]]]]]]]]]]]]]]]]]]]]]]]]]]]]]]]]]]]EMq=....................................]][[[[[[[[[[",
"[[[[[[[[[[']7.......................<I]]]]]]]]]]]]]]]]]]]]]]]]]]]]]]]]]'Ic6#........................................]][[[[[[[[[[",
"[[[[[[[[[[']6.....................%B]]]]]]]]]]]]]]]]]]]]]]]]]]]]]]]/Ai1O............................................'][[[[[[[[[[",
"[[[[[[[[[[']6...................oz`]]]]]]]]]]]]]]]]]]]]]]]]]]]]WNw;.................................................'][[[[[[[[[[",
"[[[[[[[[[[']8..................q~]]]]]]]]]]]]]]]]]]]]]]]]]'Ic6#.....................................................]][[[[[[[[[[",
"[[[[[[[[[[']8................<I]]]]]]]]]]]]]]]]]]]]]]])Cu2O.........................................................]][[[[[[[[[[",
"[[[[[[[[[[']7..............%B]]]]]]]]]]]]]]]]]]]]]TMw=..............................................................'][[[[[[[[[[",
"[[[[[[[[[[_]7............Oz_]]]]]]]]]]]]]]]]]'Lx7#..................................................................'][[[[[[[[[[",
"[[[[[[[[[[']7...........q~]]]]]]]]]]]]]]]/Cy>o......................................................................]][[[[[[[[[[",
"[[[[[[[[[[']7.........<U]]]]]]]]]]]]]Ynq&...........................................................................'][[[[[[[[[[",
"[[[[[[[[[[_]6.......%B]]]]]]]]]]`Dz4+...............................................................................]][[[[[[[[[[",
"[[[[[[[[[[']8.....Oz_]]]]]]]~Bt:o...................................................................................]][[[[[[[[[[",
"[[[[[[[[[[]]6....q~]]]]'Yv6&........................................................................................'][[[[[[[[[[",
"[[[[[[[[[[']8..2U]]_Di2+............................................................................................]][[[[[[[[[[",
"[[[[[[[[[[']7%BRMe;.................................................................................................]][[[[[[[[[[",
"[[[[[[[[[[!]n4#....................................................................................................%]][[[[[[[[[[",
"[[[[[[[[[[d]]K;..................................................................................................Ox']_[[[[[[[[[[",
"[[[[[[[[[[[f]]]m@...............................................................................................q~]]J[[[[[[[[[[[",
"[[[[[[[[[[[[[G]])y.X..........................................................................................<U]]_[[[[[[[[[[[[[",
"[[[[[[[[[[[[[[[!]]R4........................................................................................$N]]]d[[[[[[[[[[[[[[",
"[[[[[[[[[[[[[[[[s_]]A=....................................................................................oi`]]F[[[[[[[[[[[[[[[[",
"[[[[[[[[[[[[[[[[[[j]]]c+.................................................................................8~]]Q[[[[[[[[[[[[[[[[[[",
"[[[[[[[[[[[[[[[[[[[[H]]/w..............................................................................;K]]_p[[[[[[[[[[[[[[[[[[[",
"[[[[[[[[[[[[[[[[[[[[[[!]]Y2..........................................................................@n]]]g[[[[[[[[[[[[[[[[[[[[[",
"[[[[[[[[[[[[[[[[[[[[[[[d]]]B%.......................................................................y(]]H[[[[[[[[[[[[[[[[[[[[[[[",
"[[[[[[[[[[[[[[[[[[[[[[[[[F]]`zO...................................................................4R]]![[[[[[[[[[[[[[[[[[[[[[[[[",
"[[[[[[[[[[[[[[[[[[[[[[[[[[[J]]~9................................................................=A]]'a[[[[[[[[[[[[[[[[[[[[[[[[[[",
"[[[[[[[[[[[[[[[[[[[[[[[[[[[[p_]]L:............................................................+x]]]j[[[[[[[[[[[[[[[[[[[[[[[[[[[[",
"[[[[[[[[[[[[[[[[[[[[[[[[[[[[[[f]]]N$........................................................Xq/]]J[[[[[[[[[[[[[[[[[[[[[[[[[[[[[[",
"[[[[[[[[[[[[[[[[[[[[[[[[[[[[[[[[G]]`uX.....................................................2U]]_[[[[[[[[[[[[[[[[[[[[[[[[[[[[[[[[",
"[[[[[[[[[[[[[[[[[[[[[[[[[[[[[[[[[[!]]E6..................................................%B]]]d[[[[[[[[[[[[[[[[[[[[[[[[[[[[[[[[[",
"[[[[[[[[[[[[[[[[[[[[[[[[[[[[[[[[[[[p_]]D-..............................................oz']]j[[[[[[[[[[[[[[[[[[[[[[[[[[[[[[[[[[[",
"[[[[[[[[[[[[[[[[[[[[[[[[[[[[[[[[[[[[[h]]]n@...........................................9^]]Q[[[[[[[[[[[[[[[[[[[[[[[[[[[[[[[[[[[[[",
"[[[[[[[[[[[[[[[[[[[[[[[[[[[[[[[[[[[[[[[H]]/t........................................:P]]_ [[[[[[[[[[[[[[[[[[[[[[[[[[[[[[[[[[[[[[",
"[[[[[[[[[[[[[[[[[[[[[[[[[[[[[[[[[[[[[[[[[!]]T4....................................$N]]]f[[[[[[[[[[[[[[[[[[[[[[[[[[[[[[[[[[[[[[[[",
"[[[[[[[[[[[[[[[[[[[[[[[[[[[[[[[[[[[[[[[[[[s]]]V&.................................u_]]G[[[[[[[[[[[[[[[[[[[[[[[[[[[[[[[[[[[[[[[[[[",
"[[[[[[[[[[[[[[[[[[[[[[[[[[[[[[[[[[[[[[[[[[[[j]]'xo.............X...............5W]]Q[[[[[[[[[[[[[[[[[[[[[[[[[[[[[[[[[[[[[[[[[[[[",
"[[[[[[[[[[[[[[[[[[[[[[[[[[[[[[[[[[[[[[[[[[[[[[J]]^q..........................=S]]'a[[[[[[[[[[[[[[[[[[[[[[[[[[[[[[[[[[[[[[[[[[[[[",
"[[[[[[[[[[[[[[[[[[[[[[[[[[[[[[[[[[[[[[[[[[[[[[[[_]]U>......................@b]]]h[[[[[[[[[[[[[[[[[[[[[[[[[[[[[[[[[[[[[[[[[[[[[[[",
"[[[[[[[[[[[[[[[[[[[[[[[[[[[[[[[[[[[[[[[[[[[[[[[[[d]]]B$...................t/]]H[[[[[[[[[[[[[[[[[[[[[[[[[[[[[[[[[[[[[[[[[[[[[[[[[",
"[[[[[[[[[[[[[[[[[[[[[[[[[[[[[[[[[[[[[[[[[[[[[[[[[[[F]]`io...............4Y]]![[[[[[[[[[[[[[[[[[[[[[[[[[[[[[[[[[[[[[[[[[[[[[[[[[[",
"[[[[[[[[[[[[[[[[[[[[[[[[[[[[[[[[[[[[[[[[[[[[[[[[[[[[[Q]]~8............*Z]]]s[[[[[[[[[[[[[[[[[[[[[[[[[[[[[[[[[[[[[[[[[[[[[[[[[[[[",
"[[[[[[[[[[[[[[[[[[[[[[[[[[[[[[[[[[[[[[[[[[[[[[[[[[[[[[p_]]L;........+x']]j[[[[[[[[[[[[[[[[[[[[[[[[[[[[[[[[[[[[[[[[[[[[[[[[[[[[[[",
"[[[[[[[[[[[[[[[[[[[[[[[[[[[[[[[[[[[[[[[[[[[[[[[[[[[[[[[[g]]]m@.....q^]]J[[[[[[[[[[[[[[[[[[[[[[[[[[[[[[[[[[[[[[[[[[[[[[[[[[[[[[[[",
"[[[[[[[[[[[[[[[[[[[[[[[[[[[[[[[[[[[[[[[[[[[[[[[[[[[[[[[[[[G]](y..>I]]_[[[[[[[[[[[[[[[[[[[[[[[[[[[[[[[[[[[[[[[[[[[[[[[[[[[[[[[[[[",
"[[[[[[[[[[[[[[[[[[[[[[[[[[[[[[[[[[[[[[[[[[[[[[[[[[[[[[[[[[[[!]]TB]]'f[[[[[[[[[[[[[[[[[[[[[[[[[[[[[[[[[[[[[[[[[[[[[[[[[[[[[[[[[[[",
"[[[[[[[[[[[[[[[[[[[[[[[[[[[[[[[[[[[[[[[[[[[[[[[[[[[[[[[[[[[[[a']]]F[[[[[[[[[[[[[[[[[[[[[[[[[[[[[[[[[[[[[[[[[[[[[[[[[[[[[[[[[[[[[",
"[[[[[[[[[[[[[[[[[[[[[[[[[[[[[[[[[[[[[[[[[[[[[[[[[[[[[[[[[[[[[[[dh[[[[[[[[[[[[[[[[[[[[[[[[[[[[[[[[[[[[[[[[[[[[[[[[[[[[[[[[[[[[[[[",
"[[[[[[[[[[[[[[[[[[[[[[[[[[[[[[[[[[[[[[[[[[[[[[[[[[[[[[[[[[[[[[[[[[[[[[[[[[[[[[[[[[[[[[[[[[[[[[[[[[[[[[[[[[[[[[[[[[[[[[[[[[[[[[[[",
"[[[[[[[[[[[[[[[[[[[[[[[[[[[[[[[[[[[[[[[[[[[[[[[[[[[[[[[[[[[[[[[[[[[[[[[[[[[[[[[[[[[[[[[[[[[[[[[[[[[[[[[[[[[[[[[[[[[[[[[[[[[[[[[["
};
