/* XPM */
static char *_c74f7a648b74655b6ead3d70431ecef[] = {
/* columns rows colors chars-per-pixel */
"64 64 204 2 ",
"   c #07175F",
".  c #081760",
"X  c #081861",
"o  c #081862",
"O  c #081863",
"+  c #091B6D",
"@  c #091B6E",
"#  c #091B70",
"$  c #0A1D77",
"%  c #0A1D78",
"&  c #0A1D79",
"*  c #0A1E7A",
"=  c #0A1E7B",
"-  c #0A1E7C",
";  c #0A1E7D",
":  c #0A2083",
">  c #0A2084",
",  c #0A2085",
"<  c #0B2085",
"1  c #0A2185",
"2  c #0B2086",
"3  c #0B2087",
"4  c #0C228E",
"5  c #0C238F",
"6  c #0C2390",
"7  c #0C2391",
"8  c #0C2491",
"9  c #0C2599",
"0  c #0C259A",
"q  c #0D259B",
"w  c #0C269A",
"e  c #0C269B",
"r  c #0D269B",
"t  c #0D269C",
"y  c #0D279D",
"u  c #0D269E",
"i  c #0D279E",
"p  c #0D279F",
"a  c #0D28A1",
"s  c #0D28A2",
"d  c #0D28A4",
"f  c #0D28A5",
"g  c #0D28A6",
"h  c #0D29A8",
"j  c #0D29A9",
"k  c #0E2AAB",
"l  c #0E2AAC",
"z  c #0E2AAD",
"x  c #0E2BAE",
"c  c #0F2EBD",
"v  c #0F2EBE",
"b  c #0F2FC0",
"n  c #102FC0",
"m  c #1031C8",
"M  c #1031CA",
"N  c #1132CB",
"B  c #1132CD",
"V  c #1133D2",
"C  c #1134D2",
"Z  c #1134D3",
"A  c #1134D5",
"S  c #1134D6",
"D  c #1235D8",
"F  c #1336D8",
"G  c #1437D8",
"H  c #1537D8",
"J  c #1538D8",
"K  c #1638D8",
"L  c #1739D8",
"P  c #183AD8",
"I  c #183AD9",
"U  c #193BD9",
"Y  c #1A3CD9",
"T  c #1B3CD9",
"R  c #1B3DD9",
"E  c #1C3DD9",
"W  c #1C3ED9",
"Q  c #1D3ED9",
"!  c #1D3FD9",
"~  c #1E3FD9",
"^  c #1F40DA",
"/  c #2041DA",
"(  c #2242DA",
")  c #2343DA",
"_  c #2344DA",
"`  c #2445DB",
"'  c #2646DB",
"]  c #2949DB",
"[  c #2A49DB",
"{  c #2B4BDC",
"}  c #2F4EDC",
"|  c #314FDD",
" . c #3452DD",
".. c #3855DE",
"X. c #3A57DE",
"o. c #3B58DE",
"O. c #3D59DF",
"+. c #3F5BDF",
"@. c #3F5CDF",
"#. c #425EDF",
"$. c #4460E0",
"%. c #4662E0",
"&. c #4762E0",
"*. c #4964E1",
"=. c #4F69E1",
"-. c #506AE2",
";. c #526BE2",
":. c #546EE2",
">. c #576FE3",
",. c #5770E3",
"<. c #6178E4",
"1. c #657CE5",
"2. c #667CE5",
"3. c #667DE5",
"4. c #677DE5",
"5. c #687EE6",
"6. c #6A80E6",
"7. c #6E83E6",
"8. c #7185E7",
"9. c #7287E7",
"0. c #7488E7",
"q. c #7489E8",
"w. c #768AE8",
"e. c #788CE8",
"r. c #798CE8",
"t. c #798DE8",
"y. c #7B8EE9",
"u. c #7C90E9",
"i. c #7F92E9",
"p. c #8193EA",
"a. c #8395EA",
"s. c #8597EA",
"d. c #8698EB",
"f. c #8799EB",
"g. c #90A0EC",
"h. c #90A1EC",
"j. c #91A1EC",
"k. c #92A2EC",
"l. c #95A4ED",
"z. c #96A5ED",
"x. c #9AA8EE",
"c. c #9AA9EE",
"v. c #9CAAEE",
"b. c #A7B3F0",
"n. c #A7B4F0",
"m. c #A8B4F0",
"M. c #B0BCF1",
"N. c #B1BCF2",
"B. c #B6C1F3",
"V. c #B9C3F3",
"C. c #BAC4F3",
"Z. c #BBC5F3",
"A. c #BCC6F3",
"S. c #BEC7F4",
"D. c #C2CBF4",
"F. c #C3CCF5",
"G. c #C4CCF5",
"H. c #C9D1F6",
"J. c #CAD2F6",
"K. c #D0D7F7",
"L. c #D2D8F7",
"P. c #D3D9F7",
"I. c #D4DAF7",
"U. c #D4DBF7",
"Y. c #D5DBF7",
"T. c #D6DCF8",
"R. c #D8DDF8",
"E. c #D8DEF8",
"W. c #D9DFF8",
"Q. c #DADFF8",
"!. c #DBE0F9",
"~. c #DCE1F9",
"^. c #DFE3F9",
"/. c #E1E6FA",
"(. c #E2E6FA",
"). c #E3E7FA",
"_. c #E5E8FA",
"`. c #E5E9FA",
"'. c #E6E9FA",
"]. c #E6EAFA",
"[. c #E7EBFB",
"{. c #EAEDFB",
"}. c #EBEEFB",
"|. c #ECEFFB",
" X c #EDF0FC",
".X c #EFF1FC",
"XX c #F1F3FC",
"oX c #F2F4FC",
"OX c #F3F4FC",
"+X c #F4F5FD",
"@X c #F4F6FD",
"#X c #F5F6FD",
"$X c #F5F7FD",
"%X c #F7F8FD",
"&X c #F8F9FD",
"*X c #F9FAFE",
"=X c #FBFBFE",
"-X c #FBFCFE",
";X c #FCFCFE",
":X c #FCFDFE",
">X c #FDFEFE",
",X c #FEFEFE",
"<X c gray100",
"1X c None",
/* pixels */
"1X1X1X1X1X1X1X1X1X1X1X1X1X1X1X1X1X1X1X1X1X1X1X1X1X1X1Xo $ 4 9 g g 9 5 $ o 1X1X1X1X1X1X1X1X1X1X1X1X1X1X1X1X1X1X1X1X1X1X1X1X1X1X1X",
"1X1X1X1X1X1X1X1X1X1X1X1X1X1X1X1X1X1X1X1X1X1X1X< v A D D D D D D D D D D A D A v < 1X1X1X1X1X1X1X1X1X1X1X1X1X1X1X1X1X1X1X1X1X1X1X",
"1X1X1X1X1X1X1X1X1X1X1X1X1X1X1X1X1X1X1X1X< m D D D D D D D D D D D D D D D D D D D D m < 1X1X1X1X1X1X1X1X1X1X1X1X1X1X1X1X1X1X1X1X",
"1X1X1X1X1X1X1X1X1X1X1X1X1X1X1X1X1X1Xs A D D D D D D D D D D D D D D D D D D D D D D D D A s 1X1X1X1X1X1X1X1X1X1X1X1X1X1X1X1X1X1X",
"1X1X1X1X1X1X1X1X1X1X1X1X1X1X1X1Xt A D D D D D D D D D D D D D D D D D D D D D D D D D D D D A y 1X1X1X1X1X1X1X1X1X1X1X1X1X1X1X1X",
"1X1X1X1X1X1X1X1X1X1X1X1X1X1X+ V D D D D D D D D D D D D D D D D D D D D D D D D D D D D D D D D Z @ 1X1X1X1X1X1X1X1X1X1X1X1X1X1X",
"1X1X1X1X1X1X1X1X1X1X1X1X1Xz D D D D D D D D D D D D D D D D D D D D D D D D D D D D D D D D D D D D z 1X1X1X1X1X1X1X1X1X1X1X1X1X",
"1X1X1X1X1X1X1X1X1X1X1X1Xm D D D D D D D D D D D D D D D D D D D D D D D D D D D D D D D D D D D D D D m 1X1X1X1X1X1X1X1X1X1X1X1X",
"1X1X1X1X1X1X1X1X1X1X1XV D D D D D D D D D D D D D D D D D D D D D D D D D D D D D D D D D D D D D D D D A 1X1X1X1X1X1X1X1X1X1X1X",
"1X1X1X1X1X1X1X1X1X  A D D D D D D D D D D D D D D D D D D D D D D D D D D D D D D D D D D D D D D D D D D A . 1X1X1X1X1X1X1X1X1X",
"1X1X1X1X1X1X1X1X1XA D D D D D D D D D D D D D D D D D D D D D D D D D D D D D D D D D D D D D D D D D D D D A 1X1X1X1X1X1X1X1X1X",
"1X1X1X1X1X1X1X1XZ D D D D D D D D D D D D D D D D D D D D D D D D D D D D D D D D D D D D D D D D D D D D D D A 1X1X1X1X1X1X1X1X",
"1X1X1X1X1X1X1Xm D D D D D D D D D D D D D D D D D D D D D D D D D D D D D D D D D D D D D D D D D D D D D D D D m 1X1X1X1X1X1X1X",
"1X1X1X1X1X1Xz A D D D D D D D D D D D D D D D D D D D D D D D D D D D D D D D D D D D D 4.' D D D D D D D D D D D z 1X1X1X1X1X1X",
"1X1X1X1X1X+ D D D D D D D D D D D D D D D D D D D D D D D D D D D D D D D D D D D D ' C.<X/.%.D D D D D D D D D D D + 1X1X1X1X1X",
"1X1X1X1X1XV D D D D D D D D D D D D D D D D D D D D D D D D D D D D D D D D D D D -.].<X<X<X%Xt.D D D D D D D D D D Z 1X1X1X1X1X",
"1X1X1X1Xt D D D D D D D D D D D D D D D D D D D D D D D D D D D D D D D D D A J d.=X<X<X<X<X<X<XN./ D D D D D D D D D t 1X1X1X1X",
"1X1X1X1XA D D D D D D D D D D D D D D D D D D D D D D D D D D D D D D D D D { F.<X<X<X<X<X<X<X<X<X~.@.D D D D D D D D A 1X1X1X1X",
"1X1X1Xg D D D D D D D D D D D D D D D D D D D D D D D D D D D D D D D D D ,.{.<X<X<X<X<X<X<X<X<X<X<X$X7.D D D D D D D D g 1X1X1X",
"1X1X1XA D D D D D D D D D D D D D D D D D D D D D D D D D D D D D D D L j.<X<X<X<X<X<X<X<X<X<X<X<X<X<X<Xn.W D D D D D D A 1X1X1X",
"1X1X< D D D D D D D D D D D D D D D D D D D D D D D D D D D D D D D | J.<X<X<X<X<X<X<X<X<X<X<X<X<X<X<X<X<XI...D D D D D D < 1X1X",
"1X1Xm D D D D D D D D D D D D D D D D D D D D D D D D D D D D D D <..X<X<X<X<X<X<X<X<X<X<X<X<X<X<X<X<X<X<X<XD.D D D D D D B 1X1X",
"1X1XD D D D D D D D D D D D D D D D D D D D D D D D D D D D D T v.<X<X<X<X<X<X<X<X<X<X<X<X<X<X<X<X<X<X<X/.0.I D D D D D D D 1X1X",
"1X< D D D D D D D D D D D D D D D D D D D D D D D D D D D D ..P.<X<X<X<X<X<X<X<X<X<X<X<X<X<X<X<X<X<X/.0.I D D D D D D D D D < 1X",
"1Xv D D D D D D D D D D D D D D D D D D D D D D D D D D A 6.OX<X<X<X<X<X<X<X<X<X<X<X<X<X<X<X<X<X].t.T D D D D D D D D D D D b 1X",
"1XA D D D D D D D D D D D D D D D D D D D D D D D D D ^ b.<X<X<X<X<X<X<X<X<X<X<X<X<X<X<X<X<X{.t.T D D D D D D D D D D D D D A 1X",
"1XD D D D D D D D D D D D D D D D D D D D D D D D D +.W.<X<X<X<X<X<X<X<X<X<X<X<X<X<X<X<X{.i.W D D D D D D D D D D D D D D D D 1X",
"o D D D D D D D D D D D D D D D D D D D D D D D D w.%X<X<X<X<X<X<X<X<X<X<X<X<X<X<X<X{.a.W D D D D D D D D D D D D D D D D D D o ",
"= D D D D D D D D D D D D D D D D D D D D D D _ N.<X<X<X<X<X<X<X<X<X<X<X<X<X<X<X.Xa.^ D D D D D D D D D D D D D D D D D D D D ; ",
"5 D D D D D D D D D D D D D D D D D D D D D I ^.<X<X<X<X<X<X<X<X<X<X<X<X<X<X<X=X| D D D D D D D D D D D D D D D D D D D D D D 8 ",
"9 D D D D D D D D D D D D D D D D D D D D D D 4..X<X<X<X<X<X<X<X<X<X<X<X<X<X<X<X!.*.D D D D D D D D D D D D D D D D D D D D D t ",
"g A D D D D D D D D D D D D D D D D D D D D D D } G.<X<X<X<X<X<X<X<X<X<X<X<X<X<X<X-Xl.T D D D D D D D D D D D D D D D D D D D g ",
"g D D D D D D D D D D D D D D D D D D D D D D D D G a.=X<X<X<X<X<X<X<X<X<X<X<X<X<X<X<XW.%.D D D D D D D D D D D D D D D D D D h ",
"9 D D D D D D D D D D D D D D D D D D D D D D D D D D $.R.<X<X<X<X<X<X<X<X<X<X<X<X<X<X<X=Xg.I D D D D D D D D D D D D D D D D 9 ",
"8 D D D D D D D D D D D D D D D D D D D D D D D D D G D W J.<X<X<X<X<X<X<X<X<X<X<X<X<X<X<X<XI.#.D D D D D D D D D D D D D D D 7 ",
"= D D D D D D D D D D D D D D D D D D D D D D D D D A I t.XX<X<X<X<X<X<X<X<X<X<X<X<X<X<X<X<X<X=Xd.D D D D D D D D D D D D D D ; ",
"o D D D D D D D D D D D D D D D D D D D D D D D D D ,.W.<X<X<X<X<X<X<X<X<X<X<X<X<X<X<X<X<X<X$XA.8.D D D D D D D D D D D D D D o ",
"1XD D D D D D D D D D D D D D D D D D D D D D D ..A.<X<X<X<X<X<X<X<X<X<X<X<X<X<X<X<X=XK.g.-.T D D D D D D D D D D D D D D D D 1X",
"1XA D D D D D D D D D D D D D D D D D D D D / x.=X<X<X<X<X<X<X<X<X<X<X<X<X<X<X].b.4.] D D D D D D D D D D D D D D D D D D D A 1X",
"1Xv D D D D D D D D D D D D D D D D D D L t.|.<X<X<X<X<X<X<X<X<X<X<X<X$XA.u...G D D D D D D D D D D D D D D D D D D D D D D b 1X",
"1X< D D D D D D D D D D D D D D D D A :.T.<X<X<X<X<X<X<X<X<X<X<XI.j.-.W D D D D D D D D D D D D D D D D D D D D D D D D D D 3 1X",
"1X1XD D D D D D D D D D D D D D D ..B.<X<X<X<X<X<X<X<X<X].b.4.] A D D D D D D D D D D D D D D D D D D D D D D D D D D D D D 1X1X",
"1X1Xm D D D D D D D D D D S D / l.=X<X<X<X<X<X<X$XA.t.+.G D D D D D D D D D D D D D D D D D D D D D D D D D D D D D D D D B 1X1X",
"1X1X< D D D D D D D D D D L 9.{.<X<X<X<X=XP.j.-.W D D D D D D D D D D D D D D D D D D D D D D D D D D D D D D D D D D D D 3 1X1X",
"1X1X1XA D D D D D D D D -.P.<X<X<X].b.4.] D D D D D D D D D D D D D D D D D D D D D D D D D D D D D D D D D D D D D D D A 1X1X1X",
"1X1X1Xg D D D D D D  .B.<XOXC.t...D D D D D D D D D D D D D D D D D D D D D D D D D D D D D D D D D D D D D D D D D D D h 1X1X1X",
"1X1X1X1XD D D D D D v.h.=.T D D A D D D D D D D D D D D D D D D D D D D D D D D D D D D D D D D D D D D D D D D D D D D 1X1X1X1X",
"1X1X1X1Xt D D D D D D D D D D D D D D D D D D D D D D D D D D D D D D D D D D D D D D D D D D D D D D D D D D D D D D t 1X1X1X1X",
"1X1X1X1X1XZ D D D D D D D D D D D D D D D D D D D D D D D D D D D D D D D D D D D D D D D D D D D D D D D D D D D D A 1X1X1X1X1X",
"1X1X1X1X1X@ D D D D D D D D D D D D D D D D D D D D D D D D D D D D D D D D D D D D D D D D D D D D D D D D D D D D # 1X1X1X1X1X",
"1X1X1X1X1X1Xz D D D D D D D D D D D D D D D D D D D D D D D D D D D D D D D D D D D D D D D D D D D D D D D D D D z 1X1X1X1X1X1X",
"1X1X1X1X1X1X1Xm D D D D D D D D D D D D D D D D D D D D D D D D D D D D D D D D D D D D D D D D D D D D D D D D m 1X1X1X1X1X1X1X",
"1X1X1X1X1X1X1X1XA D D D D D D D D D D D D D D D D D D D D D D D D D D D D D D D D D D D D D D D D D D D D D D A 1X1X1X1X1X1X1X1X",
"1X1X1X1X1X1X1X1X1XA D D D D D D D D D D D D D D D D D D D D D D D D D D D D D D D D D D D D D D D D D D D D A 1X1X1X1X1X1X1X1X1X",
"1X1X1X1X1X1X1X1X1X. A D D D D D D D D D D D D D D D D D D D D D D D D D D D D D D D D D D D D D D D D D D A o 1X1X1X1X1X1X1X1X1X",
"1X1X1X1X1X1X1X1X1X1X1XZ D D D D D D D D D D D D D D D D D D D D D D D D D D D D D D D D D D D D D D D D Z 1X1X1X1X1X1X1X1X1X1X1X",
"1X1X1X1X1X1X1X1X1X1X1X1Xm D D D D D D D D D D D D D D D D D D D D D D D D D D D D D D D D D D D D D D m 1X1X1X1X1X1X1X1X1X1X1X1X",
"1X1X1X1X1X1X1X1X1X1X1X1X1Xz D D D D D D D D D D D D D D D D D D D D D D D D D D D D D D D D D D D D z 1X1X1X1X1X1X1X1X1X1X1X1X1X",
"1X1X1X1X1X1X1X1X1X1X1X1X1X1X+ Z D D D D D D D D D D D D D D D D D D D D D D D D D D D D D D D D A # 1X1X1X1X1X1X1X1X1X1X1X1X1X1X",
"1X1X1X1X1X1X1X1X1X1X1X1X1X1X1X1Xt A D D D D D D D D D D D D D D D D D D D D D D D D D D D D A p 1X1X1X1X1X1X1X1X1X1X1X1X1X1X1X1X",
"1X1X1X1X1X1X1X1X1X1X1X1X1X1X1X1X1X1Xg A D D D D D D D D D D D D D D D D D D D D D D D D A g 1X1X1X1X1X1X1X1X1X1X1X1X1X1X1X1X1X1X",
"1X1X1X1X1X1X1X1X1X1X1X1X1X1X1X1X1X1X1X1X< B D D D D D D D D D D D D D D D D D D D D B < 1X1X1X1X1X1X1X1X1X1X1X1X1X1X1X1X1X1X1X1X",
"1X1X1X1X1X1X1X1X1X1X1X1X1X1X1X1X1X1X1X1X1X1X1X< n A D D A D D D D D D D D D A b < 1X1X1X1X1X1X1X1X1X1X1X1X1X1X1X1X1X1X1X1X1X1X1X",
"1X1X1X1X1X1X1X1X1X1X1X1X1X1X1X1X1X1X1X1X1X1X1X1X1X1X1XO = 7 t h h t 7 = O 1X1X1X1X1X1X1X1X1X1X1X1X1X1X1X1X1X1X1X1X1X1X1X1X1X1X1X"
};
