/* XPM */
static char *f38f88f832084079953b6745fc138b9e[] = {
/* columns rows colors chars-per-pixel */
"64 64 256 2 ",
"   c #000089",
".  c #0D128F",
"X  c #010D95",
"o  c #04019D",
"O  c #09009D",
"+  c #2C1F9F",
"@  c #022C9D",
"#  c #18389B",
"$  c #272691",
"%  c #0301A4",
"&  c #0B02A4",
"*  c #0206A8",
"=  c #0A06A8",
"-  c #020BA9",
";  c #0A0BAA",
":  c #1303A4",
">  c #1805A5",
",  c #140AA7",
"<  c #190AA6",
"1  c #1406A8",
"2  c #140DAA",
"3  c #190CA9",
"4  c #0012A0",
"5  c #0B13AD",
"6  c #031FAC",
"7  c #1314AC",
"8  c #1813AB",
"9  c #1319AF",
"0  c #1C1BAE",
"q  c #1B1BA7",
"w  c #071FB1",
"e  c #121DB0",
"r  c #2113A7",
"t  c #2C1DAD",
"y  c #311FA5",
"u  c #002FA5",
"i  c #0320AC",
"p  c #002EA8",
"a  c #1E20AC",
"s  c #0323B1",
"d  c #0F26B4",
"f  c #002DB6",
"g  c #0E2BB5",
"h  c #1123B2",
"j  c #112CB6",
"k  c #0D31B7",
"l  c #003AB3",
"z  c #0030B8",
"x  c #0D35B9",
"c  c #003EBC",
"v  c #0C3BBB",
"b  c #1035B9",
"n  c #3727AF",
"m  c #3329AE",
"M  c #2322B0",
"N  c #2E22B0",
"B  c #3024B0",
"V  c #322AB3",
"C  c #3B2DB3",
"Z  c #3435B7",
"A  c #3934B6",
"S  c #3938B7",
"D  c #3738B8",
"F  c #393AB8",
"G  c #4437A8",
"H  c #4937B6",
"J  c #423CB9",
"K  c #4734B5",
"L  c #0A4FA7",
"P  c #034CAB",
"I  c #004BB0",
"U  c #0041BD",
"Y  c #0A43BE",
"T  c #0148BE",
"R  c #0948BF",
"E  c #0054BA",
"W  c #2D5FA9",
"Q  c #255AA9",
"!  c #3D50A2",
"~  c #3344B7",
"^  c #0166B6",
"/  c #0066BC",
"(  c #0F6BB4",
")  c #1A6FB3",
"_  c #397CB7",
"`  c #4053A1",
"'  c #5E5AA7",
"]  c #5A56A5",
"[  c #4D46BC",
"{  c #4F4BBE",
"}  c #5042B1",
"|  c #524EBF",
" . c #6151BF",
".. c #5779B3",
"X. c #776DBB",
"o. c #6E78B2",
"O. c #707BB2",
"+. c #0C45C0",
"@. c #074FC2",
"#. c #084BC1",
"$. c #0654C4",
"%. c #0A52C3",
"&. c #055BC6",
"*. c #045FC8",
"=. c #095DC9",
"-. c #155DC5",
";. c #0061C5",
":. c #0069C3",
">. c #0464CA",
",. c #0962CB",
"<. c #026CCD",
"1. c #1F63C7",
"2. c #0174C4",
"3. c #0C79C0",
"4. c #0171CE",
"5. c #017ACB",
"6. c #0C78CF",
"7. c #037BC7",
"8. c #127DC8",
"9. c #0175D2",
"0. c #027BD6",
"q. c #027EDA",
"w. c #277CD1",
"e. c #5556C2",
"r. c #5B59C2",
"t. c #635BC3",
"y. c #6759C2",
"u. c #4D6CC6",
"i. c #5471C9",
"p. c #6D60C5",
"a. c #6F6CC9",
"s. c #716ECA",
"d. c #7573CC",
"f. c #7B7ACE",
"g. c #877FC3",
"h. c #827DCD",
"j. c #887ECF",
"k. c #4684B8",
"l. c #1083C9",
"z. c #0183DC",
"x. c #0E85DA",
"c. c #1686D8",
"v. c #2188C6",
"b. c #2485C7",
"n. c #3388C0",
"m. c #3B93CA",
"M. c #3A88D4",
"N. c #3197DF",
"B. c #3D93D0",
"V. c #0086E0",
"C. c #018BE3",
"Z. c #0291E7",
"A. c #0194EB",
"S. c #0399EB",
"D. c #0F92E4",
"F. c #1B9FEB",
"G. c #279DE6",
"H. c #19A2ED",
"J. c #22A6EC",
"K. c #39A1E5",
"L. c #549CCB",
"P. c #5296C5",
"I. c #479CDC",
"U. c #6C98C2",
"Y. c #6B92D5",
"T. c #799BD9",
"R. c #54A1D0",
"E. c #64A0C8",
"W. c #7AA1C5",
"Q. c #6EACD2",
"!. c #71ADD4",
"~. c #5FA9E1",
"^. c #4AB6EF",
"/. c #5DB2E9",
"(. c #41B4F0",
"). c #4EB8F0",
"_. c #61B3E8",
"`. c #77B4E2",
"'. c #73C0EE",
"]. c #72C9F5",
"[. c #8783CC",
"{. c #889CC3",
"}. c #9F9BC6",
"|. c #9B97C4",
" X c #8D83D1",
".X c #918AD3",
"XX c #9694D7",
"oX c #989CD6",
"OX c #9C9BD9",
"+X c #9699D5",
"@X c #90A2C5",
"#X c #86B7D5",
"$X c #8FBAD7",
"%X c #8AB8D6",
"&X c #9BBED6",
"*X c #A1A5C7",
"=X c #A3A1DB",
"-X c #ACA5DD",
";X c #B0ABDF",
":X c #A3BBD3",
">X c #8BB3E2",
",X c #B2ADE0",
"<X c #B6B3E2",
"1X c #B2BBE1",
"2X c #BCBBE3",
"3X c #C1BFE6",
"4X c #AFC3D7",
"5X c #A6C9DE",
"6X c #BCC5D9",
"7X c #89C6ED",
"8X c #9FCEEE",
"9X c #89CCF1",
"0X c #8BD2F6",
"qX c #A1C1E7",
"wX c #A8CBE2",
"eX c #ACD0EC",
"rX c #BDD3E2",
"tX c #A7DCF7",
"yX c #B2DEF6",
"uX c #BCE4F8",
"iX c #C2CADB",
"pX c #C4C2E7",
"aX c #CAC6E9",
"sX c #CECBEA",
"dX c #C1D8E6",
"fX c #CFD9EE",
"gX c #CDDCE6",
"hX c #D5D6E2",
"jX c #D4D3ED",
"kX c #DDDBEF",
"lX c #D7DAE9",
"zX c #C6DEF1",
"xX c #D7DFF1",
"cX c #DDDCF0",
"vX c #E0DEF1",
"bX c #D6E5EC",
"nX c #DDE4EA",
"mX c #CBE4F4",
"MX c #D4EAF7",
"NX c #D7EDF9",
"BX c #E8EAEE",
"VX c #E4E2F3",
"CX c #E8E7F5",
"ZX c #E7EDF4",
"AX c #ECECF5",
"SX c #F0EFF8",
"DX c #ECF1F3",
"FX c #E4F3FA",
"GX c #EFF3F9",
"HX c #F2F3F6",
"JX c #F7F8F7",
"KX c #F4F3F9",
"LX c #F8F7FB",
"PX c #F6FAFC",
"IX c #FEFEFE",
"UX c None",
/* pixels */
"UXUXUXUXUXUXUXUXUXUXUXUXUXUXUXUXUXUXUXUXUXUXUXUXUXUXUXUXUXUXUXUXUXUXUXUXUXUXUXUXUXUXUXUXUXUXUXUXUXUXUXUXUXUXUXUXUXUXUXUXUXUXUXUX",
"UXUXUXUXUXUXUXUXUXUXUXUXUXUXUXUXUXUXUXUXUXUXUXUXUXUXUXUXUXUXIXIXIXUXUXUXUXUXUXUXUXUXUXUXUXUXUXUXUXUXUXUXUXUXUXUXUXUXUXUXUXUXUXUX",
"UXUXUXUXUXUXUXUXUXUXUXUXUXUXUXUXUXUXUXUXUXUXUXUXUXUXUXUXUXIXaXK  .VXIXUXUXUXUXUXUXUXUXUXUXUXUXUXUXUXUXUXUXUXUXUXUXUXUXUXUXUXUXUX",
"UXUXUXUXUXUXUXUXUXUXUXUXUXUXUXUXUXUXUXUXUXUXUXUXUXUXUXIXVXy.& & O <  XKXIXUXUXUXUXUXUXUXUXUXUXUXUXUXUXUXUXUXUXUXUXUXUXUXUXUXUXUX",
"UXUXUXUXUXUXUXUXUXUXUXUXUXUXUXUXUXUXUXUXUXUXUXUXUXIXKX.X3 % 2 3 3 > % B ;XIXIXUXUXUXUXUXUXUXUXUXUXUXUXUXUXUXUXUXUXUXUXUXUXUXUXUX",
"UXUXUXUXUXUXUXUXUXUXUXUXUXUXUXUXUXUXUXUXUXUXUXIXIX<XV % , 8 2 2 2 2 8 = % [ sXIXUXUXUXUXUXUXUXUXUXUXUXUXUXUXUXUXUXUXUXUXUXUXUXUX",
"UXUXUXUXUXUXUXUXUXUXUXUXUXUXUXUXUXUXUXUXUXUXIXjX{ % = 8 7 7 7 7 7 7 7 7 7 = = s.CXIXUXUXUXUXUXUXUXUXUXUXUXUXUXUXUXUXUXUXUXUXUXUX",
"UXUXUXUXUXUXUXUXUXUXUXUXUXUXUXUXUXUXUXUXIXAXd.= * 0 e e e e e e e e e e 9 9 9 % 0 XXPXIXUXUXUXUXUXUXUXUXUXUXUXUXUXUXUXUXUXUXUXUX",
"UXUXUXUXUXUXUXUXUXUXUXUXUXUXUXUXUXUXIXPXOX0 * e e e h d h d h h d d h h h e e e 9 % Z 1XIXIXUXUXUXUXUXUXUXUXUXUXUXUXUXUXUXUXUXUX",
"UXUXUXUXUXUXUXUXUXUXUXUXUXUXUXUXIXIX2XD * 9 h d h d d d d g g g g g g d d g d h h e 5 * e.jXIXUXUXUXUXUXUXUXUXUXUXUXUXUXUXUXUXUX",
"UXUXUXUXUXUXUXUXUXUXUXUXUXUXUXIXxXr.* 5 h h h d g g g k k x x x x x x k k k k d d d h e - ; f.AXIXUXUXUXUXUXUXUXUXUXUXUXUXUXUXUX",
"UXUXUXUXUXUXUXUXUXUXUXUXUXIXSXf.2 - e h h d g g k x v b v v v v v v v v b x x k k j d d h e * M =XPXIXUXUXUXUXUXUXUXUXUXUXUXUXUX",
"UXUXUXUXUXUXUXUXUXUXUXIXIX=XM % 9 h d d g k x b v v v Y Y Y Y +.Y Y Y Y v v b v x k g g d d h 7 % F pXIXIXUXUXUXUXUXUXUXUXUXUXUX",
"UXUXUXUXUXUXUXUXUXUXIXpXJ % 5 e e d g g k v v v Y Y Y R #.#.#.#.@.@.#.#.+.#.Y Y v v x k g d h h e = % r.cXIXUXUXUXUXUXUXUXUXUXUX",
"UXUXUXUXUXUXUXUXIXvXt.& = 9 e e d g k k v v Y Y R @.@.@.@.$.$.$.@.$.$.@.@.#.#.#.+.Y v v x k d d e 9 0 % , h.KXIXUXUXUXUXUXUXUXUX",
"UXUXUXUXUXUXIXKXj.< % 8 9 9 h d g k x v Y Y R @.@.$.$.&.&.*.*.>.;.*.*.&.&.$.$.@.#.+.+.v v x k j d e e 9 2 % t -XIXIXUXUXUXUXUXUX",
"UXUXUXUXUXIX-Xt % < 7 7 e e d g k v v Y Y #.@.$.$.&.*.>.>.>.>.>.<.>.>.,.>.*.*.$.$.@.#.Y v v x g d d h 0 7 , o   G hXIXUXUXUXUXUX",
"UXUXUXUXUXcXO : 3 2 7 9 e d g k x v Y #.@.@.$.*.>.>.>.<.<.<.<.9.<.4.<.<.>.>.>.*.*.$.@.#.+.+.+.v k i 4 X . $ ' }.X.} IXUXUXUXUXUX",
"UXUXUXUXUXkX> > 2 2 9 e d d k x v Y +.@.$.$.*.>.>.<.4.4.9.9.9.9.9.0.9.4.4.<.<.>.>.,.=.$.#.l p @ # ! o.*XhXIXHXf.> n IXUXUXUXUXUX",
"UXUXUXUXUXcX: 1 2 5 e h d k x v Y #.@.$.&.>.>.<.<.9.9.0.0.0.0.0.0.0.0.0.0.0.9.<.;.E I P Q ..{.6XBXIXIXIXIX+Xq % O C LXUXUXUXUXUX",
"UXUXUXUXUXkX> 2 2 e e d g x b Y #.#.@.&.>.>.<.9.9.0.0.0.z.z.z.z.z.z.z.0.4./ ^ ( _ U.:XlXJXIXIXIXIXIXIX1X~ - 7 8 & C IXUXUXUXUXUX",
"UXUXUXUXUXkX> 2 7 e h d k b v Y #.$.&.*.>.<.9.9.0.q.z.z.C.V.V.z.0.5.2.b.P.#XrXDXIXIXIXIXIXPXPXIXIXxXi.s s h 9 8 = C LXUXUXUXUXUX",
"UXUXUXUXUXkX, 7 9 e d d x v Y #.@.&.&.>.<.9.9.q.z.z.z.z.5.5.l.m.Q.5XbXJXIXIXIXIXIXIXIXIXIXIXIXGXT.Y f b j h h 9 = C PXUXUXUXUXUX",
"UXUXUXUXUXkX2 5 e h d k v v R @.$.&.>.<.9.9.9.9.9.5.v.R.$XdXDXIXIXIXIXIXIXPXIXIXIXIXIXIXIXIXqX1.c +.v b j d h 9 = A IXUXUXUXUXUX",
"UXUXUXUXUXcX2 7 e h g k v Y R @.$.>.>.<.9.8.B.!.wXbXPXIXIXIXIXIXIXIXIXIXIXIXIXIXIXIXIXIXzXM.$.$.$.R v v k g h e ; A PXUXUXUXUXUX",
"UXUXUXUXUXcX2 9 h d g x v Y #.$.*.>.4.<.`.IXIXIXIXIXIXIXIXIXIXIXIXIXIXIXIXIXIXIXIXIXFX~.<.>.,.&.$.R Y v k g h e ; A IXUXUXUXUXUX",
"UXUXUXUXUXcX2 9 h d k x Y Y @.$.>.>.4.9.c.NXIXIXIXIXIXIXIXIXIXIXIXIXIXIXIXIXIXIXPX7Xx.9.9.<.>.*.$.#.Y Y x k d e 5 S IXUXUXUXUXUX",
"UXUXUXUXUXxX7 9 h d k v Y R @.&.>.>.9.0.9.N.PXIXIXIXIXIXIXIXIXIXIXIXIXIXIXIXIXyXG.q.z.0.9.9.<.>.*.@.Y Y b k g h 5 A PXUXUXUXUXUX",
"UXUXUXUXUXcX7 e d d k v Y R @.*.>.<.9.0.z.q./.IXIXIXIXIXIXIXIXIXIXIXIXIXIXNX^.Z.Z.V.z.z.5.4.<.,.&.@.R Y v k g h 5 F IXUXUXUXUXUX",
"UXUXUXUXUXcX5 e d g x v Y @.$.*.>.<.9.0.z.C.z.9XIXIXIXIXIXIXIXIXIXIXIXIXFXH.A.S.Z.C.V.z.0.9.<.>.*.@.R Y b x g h 5 S LXUXUXUXUXUX",
"UXUXUXUXUXcX7 e d g x Y Y @.$.*.>.9.9.0.z.V.Z.Z.uXIXIXIXIXIXIXIXIXIXIXIXIX0XA.S.Z.C.V.z.0.9.<.>.,.$.R Y v x d h 5 D PXUXUXUXUXUX",
"UXUXUXUXUXcX9 e d g x v Y @.&.*.<.<.9.q.z.V.Z.Z.H.FXIXIXIXIXIXIXIXIXIXIXIXIX).A.A.Z.z.z.q.9.4.>.*.$.#.R v x g g 5 F IXUXUXUXUXUX",
"UXUXUXUXUXnX5 e g g b v R @.$.*.<.<.5.0.z.C.Z.S.A.(.IXIXIXIXIXIXIXIXIXIXIXIXFXF.Z.C.V.V.0.9.<.>.*.$.@.+.v x d j 5 S PXUXUXUXUXUX",
"UXUXUXUXUXcX7 e d k b v Y #.$.*.>.9.9.q.z.V.V.Z.S.S.].IXIXIXIXIXIXIXIXIXIXIXIXyXZ.Z.V.z.0.9.<.>.*.$.#.Y v x g d 5 S IXUXUXUXUXUX",
"UXUXUXUXUXcX5 e h d x v Y #.$.*.>.<.9.0.z.V.C.Z.S.S.A.uXIXIXIXIXIXIXIXIXIXIXIXIX`.C.V.q.0.9.<.>.&.$.#.Y v x d d 5 D IXUXUXUXUXUX",
"UXUXUXUXUXcX7 e d g x v Y #.@.*.>.<.9.5.z.V.C.Z.Z.J.tXIXIXIXIXIXIXIXIXIXIXIXIXIXIXK.z.z.0.9.<.*.&.$.#.v b k j h 5 D PXUXUXUXUXUX",
"UXUXUXUXUXcX7 e h g g v Y R @.&.>.<.9.9.0.z.V.D.9XGXIXIXIXIXIXIXIXIXIXIXIXIXIXIXIXNXx.0.0.4.>.*.$.$.#.Y x k d h 5 S IXUXUXUXUXUX",
"UXUXUXUXUXcX2 9 h g k x Y R #.&.>.>.4.9.9.0._.FXIXIXIXIXIXIXIXIXIXIXIXIXIXIXIXIXPXIX8X9.9.4.>.*.$.@.Y v x g d h ; S LXUXUXUXUXUX",
"UXUXUXUXUXcX2 9 e d g x v Y R $.*.>.<.<.K.mXIXIXIXIXIXIXIXIXIXIXIXIXIXIXIXIXIXIXIXIXIXI.<.<.>.&.$.#.Y v x g d e ; S PXUXUXUXUXUX",
"UXUXUXUXUXxX2 7 e d g k v Y R $.$.$.w.eXIXIXIXIXIXIXIXIXIXIXIXIXIXIXIXIXIXIXDXdX$XL.b.6.<.>.>.$.@.#.v v k d h e ; A IXUXUXUXUXUX",
"UXUXUXUXUXcX2 2 e h d k b Y Y U -.>XPXIXIXIXIXIXIXIXIXIXIXIXIXIXIXPXbX5X!.m.8.2.>.<.4.<.<.>.&.@.R Y v x k h h 9 = A PXUXUXUXUXUX",
"UXUXUXUXUXcX2 2 9 e h j x z Y Y.ZXIXIXPXIXIXPXIXIXIXIXIXIXBXrX#XL.v.7.5.5.q.z.z.z.0.9.<.>.*.$.@.R Y v x g h e 9 = A IXUXUXUXUXUX",
"UXUXUXUXUXkX< 2 7 e h s s u.fXIXIXPXPXIXIXIXIXIXJXgX:XE.n.3.4.5.0.z.V.V.z.z.q.0.9.4.<.>.*.$.$.#.Y v x g d h 9 7 & C IXUXUXUXUXUX",
"UXUXUXUXUXxX: 2 7 9 - ~ 1XIXIXIXIXIXIXIXnX4XW.k.) ^ :.<.5.z.z.V.z.z.z.z.q.0.9.9.4.<.>.*.&.$.#.Y v v k g d e 9 8 & C PXUXUXUXUXUX",
"UXUXUXUXUXkX> 1 o a oXIXIXIXIXDXiX@X..W L I E ;.<.9.0.q.0.0.0.0.z.0.5.0.9.9.9.<.<.>.*.&.@.@.R Y v x g d h 9 5 2 : C IXUXUXUXUXUX",
"UXUXUXUXUXkX& r [.HXIXhX*XO.` # @ u l R $.=.,.>.>.<.<.4.9.9.0.9.9.9.9.9.9.9.<.>.,.*.&.@.@.+.Y v x k g h e 9 2 2 : C PXUXUXUXUXUX",
"UXUXUXUXUXkXy g.|.] $ . X 4 i k v +.+.#.@.$.&.&.>.>.>.<.<.<.4.9.4.4.4.<.>.>.>.>.&.&.@.@.Y Y v x g g h e 9 2 3 3 o m IXUXUXUXUXUX",
"UXUXUXUXUXIX2X+   o , 8 h h j j j b v Y R R @.$.$.&.*.>.>.>.>.>.>.>.>.>.>.&.&.$.@.@.R R Y v x k g d e 9 7 8 : % H aXIXUXUXUXUXUX",
"UXUXUXUXUXUXIXKX.X3 % 8 9 9 h d g x x v Y Y #.@.@.@.&.&.*.*.*.*.*.*.*.*.&.$.@.@.@.#.Y v b x k d d e e 9 2 % t -XPXIXUXUXUXUXUXUX",
"UXUXUXUXUXUXUXUXIXvXt.& = 9 e h d d k x b v Y R #.#.@.@.@.$.$.$.$.$.$.@.@.@.@.R Y Y v v x k j d h e 7 % 2 [.KXIXUXUXUXUXUXUXUXUX",
"UXUXUXUXUXUXUXUXUXUXIXaXJ % 5 e h h d k x v v v Y +.Y #.R @.#.@.@.#.R R R Y Y Y v v x k g d h h h ; % t.vXIXUXUXUXUXUXUXUXUXUXUX",
"UXUXUXUXUXUXUXUXUXUXUXIXIX-XM % e h h d g k k x v v v Y Y Y Y R Y Y Y Y Y Y v v x k k k d h h 5 % F pXIXUXUXUXUXUXUXUXUXUXUXUXUX",
"UXUXUXUXUXUXUXUXUXUXUXUXUXIXSXh.7 - e h d d j g k k x v v v v v v v v v v x x x k d d h h e * M =XIXIXUXUXUXUXUXUXUXUXUXUXUXUXUX",
"UXUXUXUXUXUXUXUXUXUXUXUXUXUXUXIXcXr.* 5 h h d d d g k k k k x x x x x k k k g d d d h h * 5 f.KXIXUXUXUXUXUXUXUXUXUXUXUXUXUXUXUX",
"UXUXUXUXUXUXUXUXUXUXUXUXUXUXUXUXIXIX2XF * 7 e h d h d d d d g g g g d g d d h h h h 5 - e.kXIXUXUXUXUXUXUXUXUXUXUXUXUXUXUXUXUXUX",
"UXUXUXUXUXUXUXUXUXUXUXUXUXUXUXUXUXUXIXPXOXM * e h e h h d d d h d h d h h e e h 7 % Z 2XIXIXUXUXUXUXUXUXUXUXUXUXUXUXUXUXUXUXUXUX",
"UXUXUXUXUXUXUXUXUXUXUXUXUXUXUXUXUXUXUXUXIXAXf.; = 9 9 9 e e e e e e e 9 9 e 9 % 0 XXPXIXUXUXUXUXUXUXUXUXUXUXUXUXUXUXUXUXUXUXUXUX",
"UXUXUXUXUXUXUXUXUXUXUXUXUXUXUXUXUXUXUXUXUXUXIXjX{ % ; 0 7 7 7 7 7 7 7 7 7 = = s.AXIXUXUXUXUXUXUXUXUXUXUXUXUXUXUXUXUXUXUXUXUXUXUX",
"UXUXUXUXUXUXUXUXUXUXUXUXUXUXUXUXUXUXUXUXUXUXUXIXIX<XV % 2 8 2 2 2 2 7 = % [ jXIXUXUXUXUXUXUXUXUXUXUXUXUXUXUXUXUXUXUXUXUXUXUXUXUX",
"UXUXUXUXUXUXUXUXUXUXUXUXUXUXUXUXUXUXUXUXUXUXUXUXUXIXPX.X3 % < 3 2 > % m ,XIXIXUXUXUXUXUXUXUXUXUXUXUXUXUXUXUXUXUXUXUXUXUXUXUXUXUX",
"UXUXUXUXUXUXUXUXUXUXUXUXUXUXUXUXUXUXUXUXUXUXUXUXUXUXUXIXCXp.& & O 3  XKXIXUXUXUXUXUXUXUXUXUXUXUXUXUXUXUXUXUXUXUXUXUXUXUXUXUXUXUX",
"UXUXUXUXUXUXUXUXUXUXUXUXUXUXUXUXUXUXUXUXUXUXUXUXUXUXUXUXUXIXaXH y.VXIXUXUXUXUXUXUXUXUXUXUXUXUXUXUXUXUXUXUXUXUXUXUXUXUXUXUXUXUXUX",
"UXUXUXUXUXUXUXUXUXUXUXUXUXUXUXUXUXUXUXUXUXUXUXUXUXUXUXUXUXUXIXPXIXUXUXUXUXUXUXUXUXUXUXUXUXUXUXUXUXUXUXUXUXUXUXUXUXUXUXUXUXUXUXUX",
"UXUXUXUXUXUXUXUXUXUXUXUXUXUXUXUXUXUXUXUXUXUXUXUXUXUXUXUXUXUXUXUXUXUXUXUXUXUXUXUXUXUXUXUXUXUXUXUXUXUXUXUXUXUXUXUXUXUXUXUXUXUXUXUX"
};
